<svg width="583" height="350" viewBox="0 0 583 350" fill="none" xmlns="http://www.w3.org/2000/svg">
<circle cx="290.605" cy="125.605" r="25.835" fill="#D7F6E7"/>
<path d="M274.102 124.356L285.352 135.523L304.937 115.688" stroke="#21B86F" stroke-width="3.51221"/>
<path d="M200 28.5098L200 321.124C200 328.585 206.049 334.634 213.51 334.634L369.49 334.634C376.951 334.634 383 328.585 383 321.124L383 28.5098C383 21.0486 376.951 15 369.49 15L213.51 15C206.049 15 200 21.0485 200 28.5098Z" fill="white" stroke="black" stroke-width="2"/>
<path d="M207.256 36.9739L207.256 299.36C207.256 306.821 213.304 312.869 220.766 312.869L361.027 312.869C368.488 312.869 374.537 306.821 374.537 299.36L374.537 36.9739C374.537 29.5126 368.488 23.4641 361.027 23.4641L220.766 23.4641C213.304 23.4641 207.256 29.5127 207.256 36.9739Z" fill="white" stroke="black" stroke-width="2"/>
<g clip-path="url(#clip0_247_7349)">
<path d="M356.19 115.569H226.811V244.948H356.19V115.569Z" fill="white"/>
<path d="M280.346 124.491H275.885V128.953H280.346V124.491Z" fill="black"/>
<path d="M289.268 124.491H284.807V128.953H289.268V124.491Z" fill="black"/>
<path d="M302.653 124.491H298.191V128.953H302.653V124.491Z" fill="black"/>
<path d="M275.887 128.953H271.426V133.414H275.887V128.953Z" fill="black"/>
<path d="M275.887 133.414H271.426V137.875H275.887V133.414Z" fill="black"/>
<path d="M280.346 133.414H275.885V137.875H280.346V133.414Z" fill="black"/>
<path d="M284.809 133.414H280.348V137.875H284.809V133.414Z" fill="black"/>
<path d="M293.731 133.414H289.27V137.875H293.731V133.414Z" fill="black"/>
<path d="M302.653 133.414H298.191V137.875H302.653V133.414Z" fill="black"/>
<path d="M311.577 133.414H307.115V137.875H311.577V133.414Z" fill="black"/>
<path d="M275.887 137.876H271.426V142.337H275.887V137.876Z" fill="black"/>
<path d="M284.809 137.876H280.348V142.337H284.809V137.876Z" fill="black"/>
<path d="M289.268 137.876H284.807V142.337H289.268V137.876Z" fill="black"/>
<path d="M293.731 137.876H289.27V142.337H293.731V137.876Z" fill="black"/>
<path d="M298.192 137.876H293.73V142.337H298.192V137.876Z" fill="black"/>
<path d="M307.116 137.876H302.654V142.337H307.116V137.876Z" fill="black"/>
<path d="M311.577 137.876H307.115V142.337H311.577V137.876Z" fill="black"/>
<path d="M284.809 142.337H280.348V146.798H284.809V142.337Z" fill="black"/>
<path d="M293.731 142.337H289.27V146.798H293.731V142.337Z" fill="black"/>
<path d="M298.192 142.337H293.73V146.798H298.192V142.337Z" fill="black"/>
<path d="M280.346 146.798H275.885V151.259H280.346V146.798Z" fill="black"/>
<path d="M284.809 146.798H280.348V151.26H284.809V146.798Z" fill="black"/>
<path d="M289.268 146.798H284.807V151.26H289.268V146.798Z" fill="black"/>
<path d="M293.731 146.798H289.27V151.26H293.731V146.798Z" fill="black"/>
<path d="M298.192 146.798H293.73V151.26H298.192V146.798Z" fill="black"/>
<path d="M302.653 146.798H298.191V151.259H302.653V146.798Z" fill="black"/>
<path d="M311.577 146.798H307.115V151.26H311.577V146.798Z" fill="black"/>
<path d="M275.887 151.26H271.426V155.721H275.887V151.26Z" fill="black"/>
<path d="M284.809 151.26H280.348V155.721H284.809V151.26Z" fill="black"/>
<path d="M293.731 151.26H289.27V155.721H293.731V151.26Z" fill="black"/>
<path d="M302.653 151.26H298.191V155.721H302.653V151.26Z" fill="black"/>
<path d="M311.577 151.26H307.115V155.721H311.577V151.26Z" fill="black"/>
<path d="M275.887 155.721H271.426V160.182H275.887V155.721Z" fill="black"/>
<path d="M284.809 155.721H280.348V160.182H284.809V155.721Z" fill="black"/>
<path d="M289.268 155.721H284.807V160.182H289.268V155.721Z" fill="black"/>
<path d="M293.731 155.721H289.27V160.182H293.731V155.721Z" fill="black"/>
<path d="M302.653 155.721H298.191V160.182H302.653V155.721Z" fill="black"/>
<path d="M307.116 155.721H302.654V160.182H307.116V155.721Z" fill="black"/>
<path d="M240.194 160.182H235.732V164.643H240.194V160.182Z" fill="black"/>
<path d="M266.961 160.182H262.5V164.643H266.961V160.182Z" fill="black"/>
<path d="M275.887 160.182H271.426V164.643H275.887V160.182Z" fill="black"/>
<path d="M280.346 160.182H275.885V164.643H280.346V160.182Z" fill="black"/>
<path d="M307.116 160.182H302.654V164.643H307.116V160.182Z" fill="black"/>
<path d="M311.577 160.182H307.115V164.643H311.577V160.182Z" fill="black"/>
<path d="M316.036 160.182H311.574V164.643H316.036V160.182Z" fill="black"/>
<path d="M320.498 160.182H316.037V164.643H320.498V160.182Z" fill="black"/>
<path d="M333.881 160.182H329.42V164.643H333.881V160.182Z" fill="black"/>
<path d="M338.346 160.182H333.885V164.643H338.346V160.182Z" fill="black"/>
<path d="M342.807 160.182H338.346V164.643H342.807V160.182Z" fill="black"/>
<path d="M244.657 164.643H240.195V169.105H244.657V164.643Z" fill="black"/>
<path d="M249.118 164.643H244.656V169.105H249.118V164.643Z" fill="black"/>
<path d="M253.579 164.643H249.117V169.105H253.579V164.643Z" fill="black"/>
<path d="M258.041 164.643H253.58V169.105H258.041V164.643Z" fill="black"/>
<path d="M262.502 164.643H258.041V169.105H262.502V164.643Z" fill="black"/>
<path d="M271.424 164.643H266.963V169.105H271.424V164.643Z" fill="black"/>
<path d="M275.887 164.643H271.426V169.105H275.887V164.643Z" fill="black"/>
<path d="M280.346 164.643H275.885V169.105H280.346V164.643Z" fill="black"/>
<path d="M284.809 164.643H280.348V169.105H284.809V164.643Z" fill="black"/>
<path d="M289.268 164.643H284.807V169.105H289.268V164.643Z" fill="black"/>
<path d="M293.731 164.643H289.27V169.105H293.731V164.643Z" fill="black"/>
<path d="M298.192 164.643H293.73V169.105H298.192V164.643Z" fill="black"/>
<path d="M302.653 164.643H298.191V169.105H302.653V164.643Z" fill="black"/>
<path d="M307.116 164.643H302.654V169.105H307.116V164.643Z" fill="black"/>
<path d="M324.961 164.643H320.5V169.105H324.961V164.643Z" fill="black"/>
<path d="M329.42 164.643H324.959V169.105H329.42V164.643Z" fill="black"/>
<path d="M333.881 164.643H329.42V169.105H333.881V164.643Z" fill="black"/>
<path d="M338.346 164.643H333.885V169.105H338.346V164.643Z" fill="black"/>
<path d="M342.807 164.643H338.346V169.105H342.807V164.643Z" fill="black"/>
<path d="M244.657 169.105H240.195V173.567H244.657V169.105Z" fill="black"/>
<path d="M249.118 169.105H244.656V173.567H249.118V169.105Z" fill="black"/>
<path d="M258.041 169.105H253.58V173.567H258.041V169.105Z" fill="black"/>
<path d="M262.502 169.105H258.041V173.567H262.502V169.105Z" fill="black"/>
<path d="M266.961 169.105H262.5V173.567H266.961V169.105Z" fill="black"/>
<path d="M271.424 169.105H266.963V173.567H271.424V169.105Z" fill="black"/>
<path d="M275.887 169.105H271.426V173.567H275.887V169.105Z" fill="black"/>
<path d="M280.346 169.105H275.885V173.567H280.346V169.105Z" fill="black"/>
<path d="M284.809 169.105H280.348V173.567H284.809V169.105Z" fill="black"/>
<path d="M289.268 169.105H284.807V173.567H289.268V169.105Z" fill="black"/>
<path d="M298.192 169.105H293.73V173.567H298.192V169.105Z" fill="black"/>
<path d="M302.653 169.105H298.191V173.567H302.653V169.105Z" fill="black"/>
<path d="M307.116 169.105H302.654V173.567H307.116V169.105Z" fill="black"/>
<path d="M311.577 169.105H307.115V173.567H311.577V169.105Z" fill="black"/>
<path d="M320.498 169.105H316.037V173.567H320.498V169.105Z" fill="black"/>
<path d="M333.881 169.105H329.42V173.567H333.881V169.105Z" fill="black"/>
<path d="M342.807 169.105H338.346V173.567H342.807V169.105Z" fill="black"/>
<path d="M347.268 169.105H342.807V173.567H347.268V169.105Z" fill="black"/>
<path d="M249.118 173.566H244.656V178.028H249.118V173.566Z" fill="black"/>
<path d="M258.041 173.566H253.58V178.028H258.041V173.566Z" fill="black"/>
<path d="M275.887 173.567H271.426V178.028H275.887V173.567Z" fill="black"/>
<path d="M284.809 173.566H280.348V178.028H284.809V173.566Z" fill="black"/>
<path d="M289.268 173.566H284.807V178.028H289.268V173.566Z" fill="black"/>
<path d="M293.731 173.566H289.27V178.028H293.731V173.566Z" fill="black"/>
<path d="M298.192 173.566H293.73V178.028H298.192V173.566Z" fill="black"/>
<path d="M316.036 173.566H311.574V178.028H316.036V173.566Z" fill="black"/>
<path d="M320.498 173.567H316.037V178.028H320.498V173.567Z" fill="black"/>
<path d="M333.881 173.566H329.42V178.028H333.881V173.566Z" fill="black"/>
<path d="M347.268 173.566H342.807V178.028H347.268V173.566Z" fill="black"/>
<path d="M240.194 178.028H235.732V182.489H240.194V178.028Z" fill="black"/>
<path d="M244.657 178.028H240.195V182.489H244.657V178.028Z" fill="black"/>
<path d="M258.041 178.028H253.58V182.489H258.041V178.028Z" fill="black"/>
<path d="M262.502 178.028H258.041V182.489H262.502V178.028Z" fill="black"/>
<path d="M266.961 178.028H262.5V182.489H266.961V178.028Z" fill="black"/>
<path d="M271.424 178.028H266.963V182.489H271.424V178.028Z" fill="black"/>
<path d="M275.887 178.028H271.426V182.489H275.887V178.028Z" fill="black"/>
<path d="M280.346 178.028H275.885V182.489H280.346V178.028Z" fill="black"/>
<path d="M284.809 178.028H280.348V182.489H284.809V178.028Z" fill="black"/>
<path d="M289.268 178.028H284.807V182.489H289.268V178.028Z" fill="black"/>
<path d="M293.731 178.028H289.27V182.489H293.731V178.028Z" fill="black"/>
<path d="M298.192 178.028H293.73V182.489H298.192V178.028Z" fill="black"/>
<path d="M320.498 178.028H316.037V182.489H320.498V178.028Z" fill="black"/>
<path d="M347.268 178.028H342.807V182.489H347.268V178.028Z" fill="black"/>
<path d="M240.194 182.489H235.732V186.95H240.194V182.489Z" fill="black"/>
<path d="M244.657 182.489H240.195V186.951H244.657V182.489Z" fill="black"/>
<path d="M253.579 182.489H249.117V186.951H253.579V182.489Z" fill="black"/>
<path d="M258.041 182.489H253.58V186.951H258.041V182.489Z" fill="black"/>
<path d="M280.346 182.489H275.885V186.95H280.346V182.489Z" fill="black"/>
<path d="M307.116 182.489H302.654V186.951H307.116V182.489Z" fill="black"/>
<path d="M311.577 182.489H307.115V186.951H311.577V182.489Z" fill="black"/>
<path d="M316.036 182.489H311.574V186.951H316.036V182.489Z" fill="black"/>
<path d="M324.961 182.489H320.5V186.951H324.961V182.489Z" fill="black"/>
<path d="M342.807 182.489H338.346V186.951H342.807V182.489Z" fill="black"/>
<path d="M240.194 186.95H235.732V191.412H240.194V186.95Z" fill="black"/>
<path d="M258.041 186.95H253.58V191.412H258.041V186.95Z" fill="black"/>
<path d="M266.961 186.95H262.5V191.412H266.961V186.95Z" fill="black"/>
<path d="M275.887 186.95H271.426V191.412H275.887V186.95Z" fill="black"/>
<path d="M280.346 186.95H275.885V191.412H280.346V186.95Z" fill="black"/>
<path d="M284.809 186.95H280.348V191.412H284.809V186.95Z" fill="black"/>
<path d="M289.268 186.95H284.807V191.412H289.268V186.95Z" fill="black"/>
<path d="M293.731 186.95H289.27V191.412H293.731V186.95Z" fill="black"/>
<path d="M307.116 186.95H302.654V191.412H307.116V186.95Z" fill="black"/>
<path d="M311.577 186.95H307.115V191.412H311.577V186.95Z" fill="black"/>
<path d="M320.498 186.95H316.037V191.412H320.498V186.95Z" fill="black"/>
<path d="M324.961 186.95H320.5V191.412H324.961V186.95Z" fill="black"/>
<path d="M329.42 186.95H324.959V191.412H329.42V186.95Z" fill="black"/>
<path d="M333.881 186.95H329.42V191.412H333.881V186.95Z" fill="black"/>
<path d="M342.807 186.95H338.346V191.412H342.807V186.95Z" fill="black"/>
<path d="M347.268 186.95H342.807V191.412H347.268V186.95Z" fill="black"/>
<path d="M240.194 191.411H235.732V195.872H240.194V191.411Z" fill="black"/>
<path d="M249.118 191.411H244.656V195.872H249.118V191.411Z" fill="black"/>
<path d="M253.579 191.411H249.117V195.872H253.579V191.411Z" fill="black"/>
<path d="M262.502 191.411H258.041V195.872H262.502V191.411Z" fill="black"/>
<path d="M289.268 191.411H284.807V195.872H289.268V191.411Z" fill="black"/>
<path d="M316.036 191.411H311.574V195.872H316.036V191.411Z" fill="black"/>
<path d="M324.961 191.411H320.5V195.872H324.961V191.411Z" fill="black"/>
<path d="M333.881 191.411H329.42V195.872H333.881V191.411Z" fill="black"/>
<path d="M338.346 191.411H333.885V195.872H338.346V191.411Z" fill="black"/>
<path d="M347.268 191.411H342.807V195.872H347.268V191.411Z" fill="black"/>
<path d="M240.194 195.874H235.732V200.335H240.194V195.874Z" fill="black"/>
<path d="M249.118 195.874H244.656V200.335H249.118V195.874Z" fill="black"/>
<path d="M262.502 195.874H258.041V200.335H262.502V195.874Z" fill="black"/>
<path d="M266.961 195.874H262.5V200.335H266.961V195.874Z" fill="black"/>
<path d="M271.424 195.874H266.963V200.335H271.424V195.874Z" fill="black"/>
<path d="M275.887 195.874H271.426V200.335H275.887V195.874Z" fill="black"/>
<path d="M280.346 195.874H275.885V200.335H280.346V195.874Z" fill="black"/>
<path d="M284.809 195.874H280.348V200.335H284.809V195.874Z" fill="black"/>
<path d="M289.268 195.874H284.807V200.335H289.268V195.874Z" fill="black"/>
<path d="M307.116 195.874H302.654V200.335H307.116V195.874Z" fill="black"/>
<path d="M311.577 195.874H307.115V200.335H311.577V195.874Z" fill="black"/>
<path d="M316.036 195.874H311.574V200.335H316.036V195.874Z" fill="black"/>
<path d="M320.498 195.874H316.037V200.335H320.498V195.874Z" fill="black"/>
<path d="M324.961 195.874H320.5V200.335H324.961V195.874Z" fill="black"/>
<path d="M329.42 195.874H324.959V200.335H329.42V195.874Z" fill="black"/>
<path d="M338.346 195.874H333.885V200.335H338.346V195.874Z" fill="black"/>
<path d="M275.887 200.335H271.426V204.796H275.887V200.335Z" fill="black"/>
<path d="M280.346 200.335H275.885V204.796H280.346V200.335Z" fill="black"/>
<path d="M293.731 200.334H289.27V204.796H293.731V200.334Z" fill="black"/>
<path d="M298.192 200.334H293.73V204.796H298.192V200.334Z" fill="black"/>
<path d="M302.653 200.335H298.191V204.796H302.653V200.335Z" fill="black"/>
<path d="M311.577 200.334H307.115V204.796H311.577V200.334Z" fill="black"/>
<path d="M329.42 200.334H324.959V204.796H329.42V200.334Z" fill="black"/>
<path d="M284.809 204.795H280.348V209.257H284.809V204.795Z" fill="black"/>
<path d="M289.268 204.795H284.807V209.257H289.268V204.795Z" fill="black"/>
<path d="M311.577 204.795H307.115V209.257H311.577V204.795Z" fill="black"/>
<path d="M320.498 204.795H316.037V209.257H320.498V204.795Z" fill="black"/>
<path d="M329.42 204.795H324.959V209.257H329.42V204.795Z" fill="black"/>
<path d="M347.268 204.795H342.807V209.257H347.268V204.795Z" fill="black"/>
<path d="M280.346 209.257H275.885V213.719H280.346V209.257Z" fill="black"/>
<path d="M293.731 209.257H289.27V213.719H293.731V209.257Z" fill="black"/>
<path d="M298.192 209.257H293.73V213.719H298.192V209.257Z" fill="black"/>
<path d="M307.116 209.257H302.654V213.719H307.116V209.257Z" fill="black"/>
<path d="M311.577 209.257H307.115V213.719H311.577V209.257Z" fill="black"/>
<path d="M329.42 209.257H324.959V213.719H329.42V209.257Z" fill="black"/>
<path d="M342.807 209.257H338.346V213.719H342.807V209.257Z" fill="black"/>
<path d="M293.731 213.719H289.27V218.18H293.731V213.719Z" fill="black"/>
<path d="M302.653 213.719H298.191V218.18H302.653V213.719Z" fill="black"/>
<path d="M307.116 213.719H302.654V218.18H307.116V213.719Z" fill="black"/>
<path d="M311.577 213.719H307.115V218.18H311.577V213.719Z" fill="black"/>
<path d="M316.036 213.719H311.574V218.18H316.036V213.719Z" fill="black"/>
<path d="M320.498 213.719H316.037V218.18H320.498V213.719Z" fill="black"/>
<path d="M324.961 213.719H320.5V218.18H324.961V213.719Z" fill="black"/>
<path d="M329.42 213.719H324.959V218.18H329.42V213.719Z" fill="black"/>
<path d="M338.346 213.719H333.885V218.18H338.346V213.719Z" fill="black"/>
<path d="M347.268 213.719H342.807V218.18H347.268V213.719Z" fill="black"/>
<path d="M280.346 218.18H275.885V222.641H280.346V218.18Z" fill="black"/>
<path d="M302.653 218.18H298.191V222.641H302.653V218.18Z" fill="black"/>
<path d="M307.116 218.18H302.654V222.641H307.116V218.18Z" fill="black"/>
<path d="M316.036 218.18H311.574V222.641H316.036V218.18Z" fill="black"/>
<path d="M320.498 218.18H316.037V222.641H320.498V218.18Z" fill="black"/>
<path d="M342.807 218.18H338.346V222.641H342.807V218.18Z" fill="black"/>
<path d="M347.268 218.18H342.807V222.641H347.268V218.18Z" fill="black"/>
<path d="M289.268 222.641H284.807V227.102H289.268V222.641Z" fill="black"/>
<path d="M293.731 222.641H289.27V227.102H293.731V222.641Z" fill="black"/>
<path d="M307.116 222.641H302.654V227.102H307.116V222.641Z" fill="black"/>
<path d="M311.577 222.641H307.115V227.102H311.577V222.641Z" fill="black"/>
<path d="M316.036 222.641H311.574V227.102H316.036V222.641Z" fill="black"/>
<path d="M333.881 222.641H329.42V227.102H333.881V222.641Z" fill="black"/>
<path d="M338.346 222.64H333.885V227.102H338.346V222.64Z" fill="black"/>
<path d="M347.268 222.641H342.807V227.102H347.268V222.641Z" fill="black"/>
<path d="M284.809 227.102H280.348V231.564H284.809V227.102Z" fill="black"/>
<path d="M289.268 227.102H284.807V231.564H289.268V227.102Z" fill="black"/>
<path d="M302.653 227.102H298.191V231.564H302.653V227.102Z" fill="black"/>
<path d="M311.577 227.102H307.115V231.564H311.577V227.102Z" fill="black"/>
<path d="M320.498 227.102H316.037V231.564H320.498V227.102Z" fill="black"/>
<path d="M324.961 227.102H320.5V231.564H324.961V227.102Z" fill="black"/>
<path d="M329.42 227.103H324.959V231.564H329.42V227.103Z" fill="black"/>
<path d="M347.268 227.102H342.807V231.564H347.268V227.102Z" fill="black"/>
<path d="M275.887 231.563H271.426V236.025H275.887V231.563Z" fill="black"/>
<path d="M280.346 231.563H275.885V236.025H280.346V231.563Z" fill="black"/>
<path d="M284.809 231.563H280.348V236.025H284.809V231.563Z" fill="black"/>
<path d="M298.192 231.563H293.73V236.025H298.192V231.563Z" fill="black"/>
<path d="M302.653 231.563H298.191V236.025H302.653V231.563Z" fill="black"/>
<path d="M311.577 231.563H307.115V236.025H311.577V231.563Z" fill="black"/>
<path d="M333.881 231.563H329.42V236.025H333.881V231.563Z" fill="black"/>
<path d="M347.268 231.563H342.807V236.025H347.268V231.563Z" fill="black"/>
<path d="M262.277 124.491H240.417H235.732V129.176V151.036V155.721H240.417H262.277H266.962V151.036V129.176V124.491H262.277ZM262.277 151.036H240.417V129.176H262.277V151.036Z" fill="black"/>
<path d="M342.582 124.491H320.722H316.037V129.176V151.036V155.721H320.722H342.582H347.267V151.036V129.176V124.491H342.582ZM342.582 151.036H320.722V129.176H342.582V151.036Z" fill="black"/>
<path d="M262.277 204.795H240.417H235.732V209.479V231.34V236.024H240.417H262.277H266.962V231.34V209.479V204.795H262.277ZM262.277 231.34H240.417V209.479H262.277V231.34Z" fill="black"/>
<path d="M258.04 133.414H244.656V146.798H258.04V133.414Z" fill="black"/>
<path d="M338.343 133.414H324.959V146.798H338.343V133.414Z" fill="black"/>
<path d="M258.04 213.719H244.656V227.103H258.04V213.719Z" fill="black"/>
</g>
<path d="M207.254 36.9739L207.254 299.36C207.254 306.821 213.302 312.869 220.764 312.869L361.025 312.869C368.486 312.869 374.535 306.821 374.535 299.36L374.535 36.9739C374.535 29.5126 368.486 23.4641 361.025 23.4641L220.764 23.4641C213.302 23.4641 207.254 29.5127 207.254 36.9739Z" fill="white" fill-opacity="0.7" stroke="black" stroke-width="2"/>
<path d="M212 230L212 292C212 300.284 218.716 307 227 307L355 307C363.284 307 370 300.284 370 292L370 230C370 221.716 363.284 215 355 215L227 215C218.716 215 212 221.716 212 230Z" fill="white" stroke="black" stroke-width="2"/>
<path d="M259.541 236.75C259.628 237.379 259.799 237.849 260.054 238.16C260.521 238.727 261.322 239.01 262.455 239.01C263.134 239.01 263.685 238.935 264.109 238.786C264.912 238.5 265.314 237.967 265.314 237.189C265.314 236.734 265.114 236.382 264.716 236.133C264.317 235.89 263.691 235.675 262.838 235.488L261.381 235.161C259.948 234.838 258.958 234.486 258.41 234.106C257.482 233.471 257.018 232.477 257.018 231.126C257.018 229.893 257.467 228.868 258.363 228.052C259.26 227.237 260.577 226.829 262.315 226.829C263.766 226.829 265.002 227.215 266.024 227.987C267.051 228.753 267.59 229.868 267.64 231.331H264.875C264.825 230.503 264.464 229.914 263.791 229.566C263.343 229.335 262.785 229.22 262.119 229.22C261.378 229.22 260.786 229.37 260.344 229.668C259.902 229.967 259.681 230.385 259.681 230.92C259.681 231.412 259.899 231.78 260.335 232.023C260.615 232.185 261.213 232.374 262.128 232.592L264.501 233.162C265.541 233.411 266.326 233.745 266.855 234.162C267.677 234.81 268.088 235.747 268.088 236.974C268.088 238.232 267.606 239.278 266.64 240.113C265.681 240.941 264.323 241.355 262.567 241.355C260.774 241.355 259.363 240.947 258.335 240.131C257.308 239.309 256.794 238.182 256.794 236.75H259.541ZM272.74 229.603H270.041V227.146H272.74V229.603ZM270.041 230.818H272.74V241H270.041V230.818ZM279.7 238.814C280.323 238.814 280.849 238.58 281.279 238.113C281.708 237.64 281.923 236.89 281.923 235.862C281.923 234.897 281.718 234.162 281.307 233.657C280.902 233.153 280.357 232.901 279.672 232.901C278.738 232.901 278.093 233.34 277.738 234.218C277.551 234.685 277.458 235.261 277.458 235.946C277.458 236.538 277.558 237.064 277.757 237.525C278.118 238.384 278.766 238.814 279.7 238.814ZM279.037 230.575C279.547 230.575 279.993 230.652 280.373 230.808C281.02 231.076 281.543 231.568 281.942 232.284V230.818H284.53V240.477C284.53 241.791 284.309 242.781 283.866 243.448C283.107 244.593 281.649 245.166 279.494 245.166C278.193 245.166 277.131 244.911 276.309 244.4C275.487 243.89 275.032 243.127 274.945 242.112H277.841C277.916 242.423 278.037 242.647 278.205 242.784C278.492 243.027 278.974 243.149 279.653 243.149C280.612 243.149 281.254 242.828 281.578 242.186C281.789 241.775 281.895 241.084 281.895 240.113V239.459C281.64 239.895 281.366 240.222 281.073 240.439C280.544 240.844 279.856 241.047 279.009 241.047C277.701 241.047 276.655 240.589 275.87 239.673C275.091 238.752 274.702 237.506 274.702 235.937C274.702 234.423 275.079 233.153 275.832 232.125C276.586 231.092 277.654 230.575 279.037 230.575ZM292.666 230.575C293.719 230.575 294.578 230.852 295.245 231.406C295.917 231.954 296.253 232.866 296.253 234.143V241H293.526V234.806C293.526 234.271 293.454 233.86 293.311 233.573C293.049 233.05 292.551 232.789 291.816 232.789C290.913 232.789 290.293 233.172 289.957 233.938C289.783 234.342 289.696 234.859 289.696 235.488V241H287.043V230.836H289.612V232.322C289.954 231.798 290.278 231.422 290.583 231.191C291.131 230.78 291.826 230.575 292.666 230.575ZM306.782 229.603H304.082V227.146H306.782V229.603ZM304.082 230.818H306.782V241H304.082V230.818ZM315.012 230.575C316.064 230.575 316.924 230.852 317.59 231.406C318.263 231.954 318.599 232.866 318.599 234.143V241H315.871V234.806C315.871 234.271 315.799 233.86 315.656 233.573C315.395 233.05 314.896 232.789 314.162 232.789C313.259 232.789 312.639 233.172 312.303 233.938C312.128 234.342 312.041 234.859 312.041 235.488V241H309.388V230.836H311.957V232.322C312.299 231.798 312.623 231.422 312.928 231.191C313.477 230.78 314.171 230.575 315.012 230.575Z" fill="black"/>
<path d="M297.413 264.404C297.302 264.404 297.192 264.376 297.096 264.321C294.45 262.957 292.162 262.378 289.42 262.378C286.692 262.378 284.101 263.026 281.745 264.321C281.414 264.5 281.001 264.376 280.808 264.045C280.629 263.715 280.753 263.288 281.083 263.108C283.646 261.717 286.458 261 289.42 261C292.355 261 294.919 261.648 297.73 263.095C298.074 263.274 298.198 263.687 298.019 264.018C297.895 264.266 297.661 264.404 297.413 264.404V264.404ZM277.693 271.638C277.556 271.638 277.418 271.597 277.294 271.514C276.977 271.294 276.908 270.867 277.128 270.55C278.493 268.62 280.229 267.105 282.296 266.044C286.623 263.811 292.162 263.797 296.503 266.03C298.57 267.091 300.307 268.593 301.671 270.508C301.891 270.811 301.822 271.252 301.505 271.473C301.188 271.693 300.761 271.624 300.541 271.308C299.301 269.571 297.73 268.207 295.869 267.256C291.914 265.23 286.857 265.23 282.916 267.27C281.042 268.235 279.471 269.613 278.231 271.349C278.121 271.542 277.914 271.638 277.693 271.638V271.638ZM286.306 288.271C286.127 288.271 285.948 288.202 285.824 288.064C284.625 286.865 283.977 286.094 283.054 284.426C282.103 282.731 281.607 280.664 281.607 278.446C281.607 274.353 285.107 271.018 289.406 271.018C293.706 271.018 297.206 274.353 297.206 278.446C297.206 278.831 296.903 279.135 296.517 279.135C296.131 279.135 295.828 278.831 295.828 278.446C295.828 275.111 292.948 272.396 289.406 272.396C285.865 272.396 282.985 275.111 282.985 278.446C282.985 280.43 283.426 282.263 284.266 283.751C285.148 285.336 285.755 286.011 286.816 287.086C287.078 287.361 287.078 287.789 286.816 288.064C286.664 288.202 286.485 288.271 286.306 288.271ZM296.186 285.722C294.546 285.722 293.1 285.308 291.914 284.495C289.861 283.103 288.635 280.843 288.635 278.446C288.635 278.06 288.938 277.757 289.324 277.757C289.71 277.757 290.013 278.06 290.013 278.446C290.013 280.389 291.005 282.221 292.686 283.351C293.665 284.013 294.808 284.33 296.186 284.33C296.517 284.33 297.068 284.288 297.619 284.192C297.991 284.123 298.35 284.371 298.419 284.757C298.488 285.129 298.24 285.487 297.854 285.556C297.068 285.708 296.379 285.722 296.186 285.722V285.722ZM293.416 288.56C293.361 288.56 293.292 288.546 293.237 288.533C291.046 287.926 289.613 287.113 288.111 285.639C286.182 283.723 285.121 281.174 285.121 278.446C285.121 276.213 287.023 274.394 289.365 274.394C291.708 274.394 293.609 276.213 293.609 278.446C293.609 279.92 294.891 281.119 296.476 281.119C298.06 281.119 299.342 279.92 299.342 278.446C299.342 273.251 294.863 269.034 289.351 269.034C285.438 269.034 281.855 271.211 280.243 274.587C279.705 275.703 279.43 277.013 279.43 278.446C279.43 279.52 279.526 281.215 280.353 283.42C280.491 283.779 280.312 284.178 279.953 284.302C279.595 284.44 279.195 284.247 279.071 283.903C278.396 282.097 278.065 280.306 278.065 278.446C278.065 276.792 278.382 275.29 279.002 273.981C280.835 270.136 284.9 267.642 289.351 267.642C295.621 267.642 300.72 272.479 300.72 278.432C300.72 280.664 298.818 282.483 296.476 282.483C294.133 282.483 292.231 280.664 292.231 278.432C292.231 276.957 290.95 275.759 289.365 275.759C287.78 275.759 286.499 276.957 286.499 278.432C286.499 280.788 287.408 282.993 289.076 284.647C290.385 285.942 291.639 286.659 293.582 287.196C293.954 287.292 294.161 287.678 294.064 288.037C293.995 288.354 293.706 288.56 293.416 288.56V288.56Z" fill="#21B86F"/>
<defs>
<clipPath id="clip0_247_7349">
<rect width="129.379" height="129.379" fill="white" transform="translate(226.811 115.569)"/>
</clipPath>
</defs>
</svg>
