<svg width="583" height="362" viewBox="0 0 583 362" fill="none" xmlns="http://www.w3.org/2000/svg">
<circle cx="290.605" cy="128.605" r="25.835" fill="#D7F6E7"/>
<path d="M274.102 127.356L285.352 138.523L304.937 118.688" stroke="#21B86F" stroke-width="3.51221"/>
<g filter="url(#filter0_d_242_3056)">
<rect x="95" y="7" width="393" height="342" rx="12.7546" fill="white"/>
<rect x="95.0399" y="7.03986" width="392.92" height="341.92" rx="12.7147" stroke="black" stroke-width="0.079716"/>
</g>
<line x1="118.914" y1="59.4932" x2="464.084" y2="59.4932" stroke="black" stroke-width="0.239148"/>
<path d="M122.455 40.6929C122.542 41.3219 122.713 41.7921 122.968 42.1035C123.435 42.6702 124.236 42.9536 125.369 42.9536C126.048 42.9536 126.599 42.8788 127.023 42.7294C127.826 42.4429 128.228 41.9104 128.228 41.1319C128.228 40.6773 128.028 40.3254 127.63 40.0763C127.231 39.8334 126.605 39.6186 125.752 39.4317L124.295 39.1048C122.862 38.7809 121.872 38.4291 121.324 38.0492C120.396 37.4139 119.932 36.4206 119.932 35.0692C119.932 33.8361 120.381 32.8116 121.278 31.9957C122.174 31.1799 123.492 30.772 125.229 30.772C126.68 30.772 127.916 31.1581 128.938 31.9303C129.965 32.6964 130.504 33.8111 130.554 35.2747H127.789C127.739 34.4464 127.378 33.8578 126.705 33.5091C126.257 33.2787 125.699 33.1634 125.033 33.1634C124.292 33.1634 123.7 33.3129 123.258 33.6119C122.816 33.9108 122.595 34.328 122.595 34.8636C122.595 35.3556 122.813 35.7231 123.249 35.966C123.529 36.1279 124.127 36.3178 125.042 36.5358L127.415 37.1057C128.455 37.3548 129.24 37.688 129.769 38.1052C130.591 38.7529 131.002 39.6902 131.002 40.9171C131.002 42.1751 130.52 43.2214 129.554 44.0559C128.595 44.8842 127.238 45.2983 125.481 45.2983C123.688 45.2983 122.277 44.8904 121.249 44.0746C120.222 43.2525 119.708 42.1253 119.708 40.6929H122.455ZM135.654 33.5465H132.955V31.0896H135.654V33.5465ZM132.955 34.7609H135.654V44.9434H132.955V34.7609ZM142.614 42.7574C143.237 42.7574 143.763 42.5239 144.193 42.0568C144.622 41.5835 144.837 40.833 144.837 39.8054C144.837 38.8401 144.632 38.1052 144.221 37.6008C143.816 37.0963 143.271 36.8441 142.586 36.8441C141.652 36.8441 141.007 37.2831 140.652 38.1613C140.465 38.6284 140.372 39.2044 140.372 39.8895C140.372 40.4811 140.472 41.0074 140.671 41.4682C141.032 42.3277 141.68 42.7574 142.614 42.7574ZM141.951 34.518C142.461 34.518 142.907 34.5958 143.287 34.7515C143.934 35.0193 144.457 35.5113 144.856 36.2275V34.7609H147.444V44.4202C147.444 45.7343 147.223 46.7245 146.78 47.3909C146.021 48.5368 144.563 49.1098 142.408 49.1098C141.107 49.1098 140.045 48.8544 139.223 48.3437C138.401 47.8331 137.946 47.0702 137.859 46.055H140.755C140.83 46.3664 140.951 46.5906 141.119 46.7276C141.406 46.9705 141.888 47.092 142.567 47.092C143.526 47.092 144.168 46.7712 144.492 46.1298C144.703 45.7187 144.809 45.0274 144.809 44.0559V43.402C144.554 43.8379 144.28 44.1649 143.987 44.3829C143.458 44.7877 142.77 44.9901 141.923 44.9901C140.615 44.9901 139.569 44.5323 138.784 43.6168C138.005 42.6951 137.616 41.4496 137.616 39.8801C137.616 38.3668 137.993 37.0963 138.747 36.0687C139.5 35.0349 140.568 34.518 141.951 34.518ZM155.58 34.518C156.633 34.518 157.492 34.7951 158.159 35.3494C158.831 35.8975 159.168 36.8098 159.168 38.0865V44.9434H156.44V38.7498C156.44 38.2142 156.368 37.8032 156.225 37.5167C155.963 36.9936 155.465 36.732 154.73 36.732C153.827 36.732 153.208 37.115 152.871 37.881C152.697 38.2858 152.61 38.8027 152.61 39.4317V44.9434H149.957V34.7796H152.526V36.2649C152.868 35.7418 153.192 35.365 153.497 35.1346C154.045 34.7235 154.74 34.518 155.58 34.518ZM169.696 33.5465H166.996V31.0896H169.696V33.5465ZM166.996 34.7609H169.696V44.9434H166.996V34.7609ZM177.926 34.518C178.978 34.518 179.838 34.7951 180.504 35.3494C181.177 35.8975 181.513 36.8098 181.513 38.0865V44.9434H178.785V38.7498C178.785 38.2142 178.714 37.8032 178.57 37.5167C178.309 36.9936 177.811 36.732 177.076 36.732C176.173 36.732 175.553 37.115 175.217 37.881C175.042 38.2858 174.955 38.8027 174.955 39.4317V44.9434H172.302V34.7796H174.871V36.2649C175.214 35.7418 175.537 35.365 175.843 35.1346C176.391 34.7235 177.085 34.518 177.926 34.518Z" fill="black"/>
<path d="M186.953 104.405C186.989 105.056 187.143 105.584 187.414 105.99C187.929 106.751 188.838 107.131 190.14 107.131C190.724 107.131 191.255 107.048 191.734 106.881C192.661 106.558 193.125 105.98 193.125 105.147C193.125 104.522 192.929 104.076 192.539 103.811C192.143 103.55 191.523 103.324 190.679 103.131L189.125 102.78C188.109 102.55 187.39 102.298 186.968 102.022C186.239 101.543 185.875 100.826 185.875 99.8733C185.875 98.842 186.231 97.9957 186.945 97.3342C187.659 96.6728 188.669 96.342 189.976 96.342C191.179 96.342 192.2 96.6337 193.039 97.217C193.882 97.7952 194.304 98.7222 194.304 99.9983H192.843C192.765 99.3837 192.599 98.9124 192.343 98.5842C191.869 97.9853 191.065 97.6858 189.929 97.6858C189.013 97.6858 188.354 97.8785 187.953 98.2639C187.552 98.6493 187.351 99.0972 187.351 99.6077C187.351 100.17 187.586 100.582 188.054 100.842C188.362 101.009 189.057 101.217 190.14 101.467L191.75 101.834C192.526 102.011 193.125 102.253 193.547 102.561C194.276 103.097 194.64 103.876 194.64 104.897C194.64 106.168 194.177 107.076 193.25 107.623C192.328 108.17 191.255 108.444 190.031 108.444C188.604 108.444 187.487 108.079 186.679 107.35C185.872 106.626 185.476 105.644 185.492 104.405H186.953ZM199.648 99.4983C200.591 99.4983 201.356 99.7275 201.945 100.186C202.539 100.644 202.895 101.433 203.015 102.553H201.648C201.565 102.037 201.375 101.61 201.078 101.272C200.781 100.928 200.304 100.756 199.648 100.756C198.752 100.756 198.112 101.194 197.726 102.069C197.476 102.636 197.351 103.337 197.351 104.17C197.351 105.009 197.528 105.714 197.882 106.287C198.237 106.86 198.794 107.147 199.554 107.147C200.138 107.147 200.599 106.97 200.937 106.615C201.281 106.256 201.518 105.767 201.648 105.147H203.015C202.859 106.256 202.468 107.069 201.843 107.584C201.218 108.095 200.419 108.35 199.445 108.35C198.351 108.35 197.479 107.951 196.828 107.155C196.177 106.352 195.851 105.352 195.851 104.155C195.851 102.686 196.208 101.543 196.922 100.725C197.635 99.9071 198.544 99.4983 199.648 99.4983ZM205.5 105.881C205.5 106.287 205.648 106.608 205.945 106.842C206.242 107.076 206.593 107.194 207 107.194C207.494 107.194 207.974 107.079 208.437 106.85C209.218 106.47 209.609 105.847 209.609 104.983V103.85C209.437 103.959 209.216 104.05 208.945 104.123C208.674 104.196 208.409 104.248 208.148 104.28L207.297 104.389C206.786 104.457 206.403 104.563 206.148 104.709C205.716 104.954 205.5 105.345 205.5 105.881ZM208.906 103.037C209.229 102.996 209.445 102.86 209.554 102.631C209.617 102.506 209.648 102.326 209.648 102.092C209.648 101.613 209.476 101.267 209.132 101.053C208.794 100.834 208.307 100.725 207.672 100.725C206.937 100.725 206.416 100.923 206.109 101.319C205.937 101.537 205.825 101.863 205.773 102.295H204.461C204.487 101.264 204.82 100.548 205.461 100.147C206.106 99.7405 206.854 99.5374 207.703 99.5374C208.687 99.5374 209.487 99.7249 210.101 100.1C210.711 100.475 211.015 101.058 211.015 101.85V106.67C211.015 106.816 211.044 106.933 211.101 107.022C211.164 107.11 211.291 107.155 211.484 107.155C211.547 107.155 211.617 107.152 211.695 107.147C211.773 107.136 211.856 107.123 211.945 107.108V108.147C211.726 108.209 211.56 108.248 211.445 108.264C211.33 108.28 211.174 108.287 210.976 108.287C210.492 108.287 210.14 108.115 209.922 107.772C209.807 107.589 209.726 107.332 209.679 106.998C209.393 107.373 208.981 107.699 208.445 107.975C207.909 108.251 207.317 108.389 206.672 108.389C205.895 108.389 205.26 108.155 204.765 107.686C204.276 107.212 204.031 106.621 204.031 105.912C204.031 105.136 204.273 104.535 204.757 104.108C205.242 103.681 205.877 103.418 206.664 103.319L208.906 103.037ZM213.328 99.7405H214.664V100.928C215.06 100.438 215.479 100.087 215.922 99.8733C216.364 99.6597 216.856 99.553 217.398 99.553C218.586 99.553 219.388 99.967 219.804 100.795C220.034 101.248 220.148 101.897 220.148 102.74V108.108H218.718V102.834C218.718 102.324 218.643 101.912 218.492 101.6C218.242 101.079 217.789 100.819 217.132 100.819C216.799 100.819 216.526 100.852 216.312 100.92C215.927 101.035 215.588 101.264 215.297 101.608C215.062 101.884 214.909 102.17 214.836 102.467C214.768 102.759 214.734 103.178 214.734 103.725V108.108H213.328V99.7405ZM226.968 97.4045H228.39V99.7405H229.726V100.889H228.39V106.35C228.39 106.642 228.489 106.837 228.687 106.936C228.797 106.993 228.979 107.022 229.234 107.022C229.302 107.022 229.375 107.022 229.453 107.022C229.531 107.017 229.622 107.009 229.726 106.998V108.108C229.565 108.155 229.395 108.188 229.218 108.209C229.047 108.23 228.859 108.24 228.656 108.24C228 108.24 227.554 108.074 227.32 107.74C227.086 107.402 226.968 106.964 226.968 106.428V100.889H225.836V99.7405H226.968V97.4045ZM231.14 96.592H232.547V100.873C232.88 100.451 233.179 100.155 233.445 99.9827C233.898 99.6858 234.463 99.5374 235.14 99.5374C236.354 99.5374 237.177 99.9618 237.609 100.811C237.843 101.274 237.961 101.918 237.961 102.74V108.108H236.515V102.834C236.515 102.22 236.437 101.769 236.281 101.483C236.026 101.024 235.547 100.795 234.843 100.795C234.26 100.795 233.731 100.996 233.257 101.397C232.784 101.798 232.547 102.556 232.547 103.67V108.108H231.14V96.592ZM243.531 99.553C244.125 99.553 244.7 99.6936 245.257 99.9749C245.815 100.251 246.239 100.61 246.531 101.053C246.812 101.475 247 101.967 247.093 102.53C247.177 102.915 247.218 103.53 247.218 104.373H241.086C241.112 105.222 241.312 105.905 241.687 106.42C242.062 106.931 242.643 107.186 243.429 107.186C244.164 107.186 244.75 106.944 245.187 106.459C245.437 106.178 245.614 105.852 245.718 105.483H247.101C247.065 105.79 246.942 106.134 246.734 106.514C246.531 106.889 246.302 107.196 246.047 107.436C245.619 107.852 245.091 108.134 244.461 108.28C244.122 108.363 243.739 108.405 243.312 108.405C242.27 108.405 241.388 108.027 240.664 107.272C239.94 106.511 239.578 105.449 239.578 104.084C239.578 102.74 239.942 101.649 240.672 100.811C241.401 99.9722 242.354 99.553 243.531 99.553ZM245.773 103.256C245.716 102.647 245.583 102.16 245.375 101.795C244.989 101.118 244.346 100.78 243.445 100.78C242.799 100.78 242.257 101.014 241.82 101.483C241.382 101.946 241.151 102.537 241.125 103.256H245.773ZM264.093 108.076L263.312 109.022L261.539 107.67C261.112 107.905 260.648 108.092 260.148 108.233C259.653 108.373 259.112 108.444 258.523 108.444C256.742 108.444 255.346 107.86 254.336 106.694C253.445 105.558 253 104.136 253 102.428C253 100.876 253.385 99.5478 254.156 98.4436C255.145 97.0269 256.609 96.3186 258.547 96.3186C260.573 96.3186 262.073 96.9696 263.047 98.2717C263.807 99.2874 264.187 100.587 264.187 102.17C264.187 102.91 264.096 103.621 263.914 104.303C263.638 105.345 263.172 106.194 262.515 106.85L264.093 108.076ZM258.711 107.053C259.034 107.053 259.336 107.032 259.617 106.99C259.898 106.944 260.143 106.855 260.351 106.725L259.093 105.74L259.875 104.78L261.375 105.944C261.849 105.402 262.169 104.795 262.336 104.123C262.507 103.451 262.593 102.808 262.593 102.194C262.593 100.845 262.239 99.7587 261.531 98.9358C260.828 98.1129 259.864 97.7014 258.64 97.7014C257.401 97.7014 256.419 98.0972 255.695 98.8889C254.971 99.6754 254.609 100.889 254.609 102.53C254.609 103.91 254.955 105.009 255.648 105.826C256.346 106.644 257.367 107.053 258.711 107.053ZM271.382 101.889C272.112 101.889 272.687 101.743 273.109 101.451C273.536 101.16 273.75 100.634 273.75 99.8733C273.75 99.0556 273.453 98.4983 272.859 98.2014C272.541 98.0452 272.117 97.967 271.586 97.967H267.789V101.889H271.382ZM266.234 96.6311H271.547C272.422 96.6311 273.143 96.7587 273.711 97.0139C274.789 97.5035 275.328 98.4071 275.328 99.7249C275.328 100.412 275.185 100.975 274.898 101.412C274.617 101.85 274.221 102.201 273.711 102.467C274.159 102.649 274.494 102.889 274.718 103.186C274.948 103.483 275.075 103.964 275.101 104.631L275.156 106.17C275.172 106.608 275.208 106.933 275.265 107.147C275.359 107.511 275.526 107.746 275.765 107.85V108.108H273.859C273.807 108.009 273.765 107.881 273.734 107.725C273.703 107.569 273.677 107.267 273.656 106.819L273.562 104.905C273.526 104.155 273.247 103.652 272.726 103.397C272.429 103.256 271.963 103.186 271.328 103.186H267.789V108.108H266.234V96.6311ZM285.101 99.4983C286.044 99.4983 286.81 99.7275 287.398 100.186C287.992 100.644 288.349 101.433 288.468 102.553H287.101C287.018 102.037 286.828 101.61 286.531 101.272C286.234 100.928 285.757 100.756 285.101 100.756C284.205 100.756 283.565 101.194 283.179 102.069C282.929 102.636 282.804 103.337 282.804 104.17C282.804 105.009 282.981 105.714 283.336 106.287C283.69 106.86 284.247 107.147 285.007 107.147C285.591 107.147 286.052 106.97 286.39 106.615C286.734 106.256 286.971 105.767 287.101 105.147H288.468C288.312 106.256 287.922 107.069 287.297 107.584C286.672 108.095 285.872 108.35 284.898 108.35C283.804 108.35 282.932 107.951 282.281 107.155C281.63 106.352 281.304 105.352 281.304 104.155C281.304 102.686 281.661 101.543 282.375 100.725C283.088 99.9071 283.997 99.4983 285.101 99.4983ZM293.195 107.201C294.127 107.201 294.765 106.85 295.109 106.147C295.458 105.438 295.632 104.652 295.632 103.787C295.632 103.006 295.507 102.371 295.257 101.881C294.862 101.11 294.179 100.725 293.211 100.725C292.351 100.725 291.726 101.053 291.336 101.709C290.945 102.365 290.75 103.157 290.75 104.084C290.75 104.975 290.945 105.717 291.336 106.311C291.726 106.905 292.346 107.201 293.195 107.201ZM293.25 99.4983C294.328 99.4983 295.239 99.8577 295.984 100.576C296.729 101.295 297.101 102.352 297.101 103.748C297.101 105.097 296.773 106.212 296.117 107.092C295.461 107.972 294.442 108.412 293.062 108.412C291.911 108.412 290.997 108.024 290.32 107.248C289.643 106.467 289.304 105.42 289.304 104.108C289.304 102.701 289.661 101.582 290.375 100.748C291.088 99.915 292.047 99.4983 293.25 99.4983ZM299.672 104.022C299.672 104.918 299.862 105.668 300.242 106.272C300.622 106.876 301.231 107.178 302.07 107.178C302.721 107.178 303.255 106.899 303.672 106.342C304.093 105.78 304.304 104.975 304.304 103.928C304.304 102.871 304.088 102.089 303.656 101.584C303.224 101.074 302.69 100.819 302.054 100.819C301.346 100.819 300.77 101.089 300.328 101.631C299.89 102.173 299.672 102.97 299.672 104.022ZM301.789 99.592C302.429 99.592 302.966 99.7275 303.398 99.9983C303.648 100.155 303.932 100.428 304.25 100.819V96.592H305.601V108.108H304.336V106.944C304.007 107.459 303.619 107.832 303.172 108.061C302.724 108.29 302.211 108.405 301.632 108.405C300.7 108.405 299.893 108.014 299.211 107.233C298.528 106.446 298.187 105.402 298.187 104.1C298.187 102.881 298.497 101.826 299.117 100.936C299.742 100.04 300.632 99.592 301.789 99.592ZM311.172 99.553C311.765 99.553 312.341 99.6936 312.898 99.9749C313.455 100.251 313.88 100.61 314.172 101.053C314.453 101.475 314.64 101.967 314.734 102.53C314.817 102.915 314.859 103.53 314.859 104.373H308.726C308.752 105.222 308.953 105.905 309.328 106.42C309.703 106.931 310.284 107.186 311.07 107.186C311.804 107.186 312.39 106.944 312.828 106.459C313.078 106.178 313.255 105.852 313.359 105.483H314.742C314.705 105.79 314.583 106.134 314.375 106.514C314.172 106.889 313.942 107.196 313.687 107.436C313.26 107.852 312.731 108.134 312.101 108.28C311.763 108.363 311.38 108.405 310.953 108.405C309.911 108.405 309.028 108.027 308.304 107.272C307.58 106.511 307.218 105.449 307.218 104.084C307.218 102.74 307.583 101.649 308.312 100.811C309.041 99.9722 309.994 99.553 311.172 99.553ZM313.414 103.256C313.356 102.647 313.224 102.16 313.015 101.795C312.63 101.118 311.987 100.78 311.086 100.78C310.44 100.78 309.898 101.014 309.461 101.483C309.023 101.946 308.791 102.537 308.765 103.256H313.414ZM321.328 97.4045H322.75V99.7405H324.086V100.889H322.75V106.35C322.75 106.642 322.849 106.837 323.047 106.936C323.156 106.993 323.338 107.022 323.593 107.022C323.661 107.022 323.734 107.022 323.812 107.022C323.89 107.017 323.981 107.009 324.086 106.998V108.108C323.924 108.155 323.755 108.188 323.578 108.209C323.406 108.23 323.218 108.24 323.015 108.24C322.359 108.24 321.914 108.074 321.679 107.74C321.445 107.402 321.328 106.964 321.328 106.428V100.889H320.195V99.7405H321.328V97.4045ZM328.82 107.201C329.752 107.201 330.39 106.85 330.734 106.147C331.083 105.438 331.257 104.652 331.257 103.787C331.257 103.006 331.132 102.371 330.882 101.881C330.487 101.11 329.804 100.725 328.836 100.725C327.976 100.725 327.351 101.053 326.961 101.709C326.57 102.365 326.375 103.157 326.375 104.084C326.375 104.975 326.57 105.717 326.961 106.311C327.351 106.905 327.971 107.201 328.82 107.201ZM328.875 99.4983C329.953 99.4983 330.864 99.8577 331.609 100.576C332.354 101.295 332.726 102.352 332.726 103.748C332.726 105.097 332.398 106.212 331.742 107.092C331.086 107.972 330.067 108.412 328.687 108.412C327.536 108.412 326.622 108.024 325.945 107.248C325.268 106.467 324.929 105.42 324.929 104.108C324.929 102.701 325.286 101.582 326 100.748C326.713 99.915 327.672 99.4983 328.875 99.4983ZM339.695 105.483C339.737 105.951 339.854 106.311 340.047 106.561C340.401 107.014 341.015 107.24 341.89 107.24C342.411 107.24 342.869 107.128 343.265 106.905C343.661 106.675 343.859 106.324 343.859 105.85C343.859 105.49 343.7 105.217 343.382 105.03C343.179 104.915 342.778 104.782 342.179 104.631L341.062 104.35C340.349 104.173 339.823 103.975 339.484 103.756C338.88 103.376 338.578 102.85 338.578 102.178C338.578 101.386 338.862 100.746 339.429 100.256C340.002 99.7665 340.77 99.5217 341.734 99.5217C342.994 99.5217 343.903 99.8915 344.461 100.631C344.81 101.1 344.979 101.605 344.968 102.147H343.64C343.614 101.829 343.502 101.54 343.304 101.28C342.981 100.91 342.422 100.725 341.625 100.725C341.093 100.725 340.69 100.826 340.414 101.03C340.143 101.233 340.007 101.501 340.007 101.834C340.007 102.199 340.187 102.49 340.547 102.709C340.755 102.839 341.062 102.954 341.468 103.053L342.398 103.28C343.409 103.524 344.086 103.761 344.429 103.99C344.976 104.35 345.25 104.915 345.25 105.686C345.25 106.431 344.966 107.074 344.398 107.615C343.836 108.157 342.976 108.428 341.82 108.428C340.575 108.428 339.692 108.147 339.172 107.584C338.656 107.017 338.38 106.316 338.343 105.483H339.695ZM346.859 99.7795H348.289V108.108H346.859V99.7795ZM346.859 96.6311H348.289V98.2249H346.859V96.6311ZM353.375 99.592C354.031 99.592 354.604 99.7535 355.093 100.076C355.359 100.259 355.63 100.524 355.906 100.873V99.8186H357.203V107.428C357.203 108.49 357.047 109.329 356.734 109.944C356.151 111.079 355.049 111.647 353.429 111.647C352.528 111.647 351.77 111.444 351.156 111.037C350.541 110.636 350.198 110.006 350.125 109.147H351.554C351.622 109.522 351.757 109.811 351.961 110.014C352.278 110.326 352.778 110.483 353.461 110.483C354.539 110.483 355.244 110.102 355.578 109.342C355.776 108.894 355.867 108.095 355.851 106.944C355.57 107.371 355.231 107.688 354.836 107.897C354.44 108.105 353.916 108.209 353.265 108.209C352.359 108.209 351.565 107.889 350.882 107.248C350.205 106.602 349.867 105.537 349.867 104.053C349.867 102.652 350.208 101.558 350.89 100.772C351.578 99.9853 352.406 99.592 353.375 99.592ZM355.906 103.889C355.906 102.852 355.692 102.084 355.265 101.584C354.838 101.084 354.294 100.834 353.632 100.834C352.643 100.834 351.966 101.298 351.601 102.225C351.409 102.72 351.312 103.368 351.312 104.17C351.312 105.113 351.502 105.832 351.882 106.326C352.268 106.816 352.784 107.061 353.429 107.061C354.44 107.061 355.151 106.605 355.562 105.694C355.791 105.178 355.906 104.576 355.906 103.889ZM359.328 99.7405H360.664V100.928C361.06 100.438 361.479 100.087 361.922 99.8733C362.364 99.6597 362.856 99.553 363.398 99.553C364.586 99.553 365.388 99.967 365.804 100.795C366.034 101.248 366.148 101.897 366.148 102.74V108.108H364.718V102.834C364.718 102.324 364.643 101.912 364.492 101.6C364.242 101.079 363.789 100.819 363.132 100.819C362.799 100.819 362.526 100.852 362.312 100.92C361.927 101.035 361.588 101.264 361.297 101.608C361.062 101.884 360.909 102.17 360.836 102.467C360.768 102.759 360.734 103.178 360.734 103.725V108.108H359.328V99.7405ZM372.687 99.7795H374.117V108.108H372.687V99.7795ZM372.687 96.6311H374.117V98.2249H372.687V96.6311ZM376.25 99.7405H377.586V100.928C377.981 100.438 378.401 100.087 378.843 99.8733C379.286 99.6597 379.778 99.553 380.32 99.553C381.507 99.553 382.31 99.967 382.726 100.795C382.955 101.248 383.07 101.897 383.07 102.74V108.108H381.64V102.834C381.64 102.324 381.565 101.912 381.414 101.6C381.164 101.079 380.711 100.819 380.054 100.819C379.721 100.819 379.448 100.852 379.234 100.92C378.849 101.035 378.51 101.264 378.218 101.608C377.984 101.884 377.83 102.17 377.757 102.467C377.69 102.759 377.656 103.178 377.656 103.725V108.108H376.25V99.7405ZM385.437 97.4045H386.859V99.7405H388.195V100.889H386.859V106.35C386.859 106.642 386.958 106.837 387.156 106.936C387.265 106.993 387.448 107.022 387.703 107.022C387.77 107.022 387.843 107.022 387.922 107.022C388 107.017 388.091 107.009 388.195 106.998V108.108C388.034 108.155 387.864 108.188 387.687 108.209C387.515 108.23 387.328 108.24 387.125 108.24C386.468 108.24 386.023 108.074 385.789 107.74C385.554 107.402 385.437 106.964 385.437 106.428V100.889H384.304V99.7405H385.437V97.4045ZM392.929 107.201C393.862 107.201 394.5 106.85 394.843 106.147C395.192 105.438 395.367 104.652 395.367 103.787C395.367 103.006 395.242 102.371 394.992 101.881C394.596 101.11 393.914 100.725 392.945 100.725C392.086 100.725 391.461 101.053 391.07 101.709C390.679 102.365 390.484 103.157 390.484 104.084C390.484 104.975 390.679 105.717 391.07 106.311C391.461 106.905 392.08 107.201 392.929 107.201ZM392.984 99.4983C394.062 99.4983 394.974 99.8577 395.718 100.576C396.463 101.295 396.836 102.352 396.836 103.748C396.836 105.097 396.507 106.212 395.851 107.092C395.195 107.972 394.177 108.412 392.797 108.412C391.645 108.412 390.731 108.024 390.054 107.248C389.377 106.467 389.039 105.42 389.039 104.108C389.039 102.701 389.395 101.582 390.109 100.748C390.823 99.915 391.781 99.4983 392.984 99.4983ZM258.672 123.256C258.312 123.324 258.06 123.584 257.914 124.037C257.841 124.261 257.804 124.483 257.804 124.701C257.804 124.727 257.804 124.751 257.804 124.772C257.81 124.787 257.815 124.826 257.82 124.889H258.672V126.592H257.007V125.022C257.007 124.251 257.161 123.657 257.468 123.24C257.776 122.824 258.177 122.584 258.672 122.522V123.256ZM261.304 123.256C261.018 123.303 260.799 123.464 260.648 123.74C260.502 124.017 260.429 124.334 260.429 124.694C260.429 124.725 260.429 124.756 260.429 124.787C260.435 124.819 260.442 124.852 260.453 124.889H261.304V126.592H259.632V125.022C259.632 124.402 259.763 123.85 260.023 123.365C260.284 122.876 260.711 122.595 261.304 122.522V123.256ZM263.406 125.74L265.015 132.334L266.648 125.74H268.226L269.867 132.295L271.578 125.74H272.984L270.554 134.108H269.093L267.39 127.631L265.742 134.108H264.281L261.867 125.74H263.406ZM277.804 125.553C278.398 125.553 278.974 125.694 279.531 125.975C280.088 126.251 280.513 126.61 280.804 127.053C281.086 127.475 281.273 127.967 281.367 128.53C281.45 128.915 281.492 129.53 281.492 130.373H275.359C275.385 131.222 275.586 131.905 275.961 132.42C276.336 132.931 276.916 133.186 277.703 133.186C278.437 133.186 279.023 132.944 279.461 132.459C279.711 132.178 279.888 131.852 279.992 131.483H281.375C281.338 131.79 281.216 132.134 281.007 132.514C280.804 132.889 280.575 133.196 280.32 133.436C279.893 133.852 279.364 134.134 278.734 134.28C278.395 134.363 278.013 134.405 277.586 134.405C276.544 134.405 275.661 134.027 274.937 133.272C274.213 132.511 273.851 131.449 273.851 130.084C273.851 128.74 274.216 127.649 274.945 126.811C275.674 125.972 276.627 125.553 277.804 125.553ZM280.047 129.256C279.989 128.647 279.856 128.16 279.648 127.795C279.263 127.118 278.619 126.78 277.718 126.78C277.073 126.78 276.531 127.014 276.093 127.483C275.656 127.946 275.424 128.537 275.398 129.256H280.047ZM283.117 122.592H284.484V126.756C284.791 126.355 285.159 126.05 285.586 125.842C286.013 125.628 286.476 125.522 286.976 125.522C288.018 125.522 288.862 125.881 289.507 126.6C290.159 127.313 290.484 128.368 290.484 129.764C290.484 131.087 290.164 132.186 289.523 133.061C288.882 133.936 287.994 134.373 286.859 134.373C286.224 134.373 285.687 134.22 285.25 133.912C284.989 133.73 284.711 133.438 284.414 133.037V134.108H283.117V122.592ZM286.773 133.131C287.534 133.131 288.101 132.829 288.476 132.225C288.856 131.621 289.047 130.824 289.047 129.834C289.047 128.954 288.856 128.225 288.476 127.647C288.101 127.069 287.547 126.78 286.812 126.78C286.172 126.78 285.609 127.017 285.125 127.49C284.645 127.964 284.406 128.746 284.406 129.834C284.406 130.621 284.505 131.259 284.703 131.748C285.073 132.67 285.763 133.131 286.773 133.131ZM292.968 131.483C293.01 131.951 293.127 132.311 293.32 132.561C293.674 133.014 294.289 133.24 295.164 133.24C295.685 133.24 296.143 133.128 296.539 132.905C296.935 132.675 297.132 132.324 297.132 131.85C297.132 131.49 296.974 131.217 296.656 131.03C296.453 130.915 296.052 130.782 295.453 130.631L294.336 130.35C293.622 130.173 293.096 129.975 292.757 129.756C292.153 129.376 291.851 128.85 291.851 128.178C291.851 127.386 292.135 126.746 292.703 126.256C293.276 125.767 294.044 125.522 295.007 125.522C296.268 125.522 297.177 125.892 297.734 126.631C298.083 127.1 298.252 127.605 298.242 128.147H296.914C296.888 127.829 296.776 127.54 296.578 127.28C296.255 126.91 295.695 126.725 294.898 126.725C294.367 126.725 293.963 126.826 293.687 127.03C293.416 127.233 293.281 127.501 293.281 127.834C293.281 128.199 293.461 128.49 293.82 128.709C294.028 128.839 294.336 128.954 294.742 129.053L295.672 129.28C296.682 129.524 297.359 129.761 297.703 129.99C298.25 130.35 298.523 130.915 298.523 131.686C298.523 132.431 298.239 133.074 297.672 133.615C297.109 134.157 296.25 134.428 295.093 134.428C293.849 134.428 292.966 134.147 292.445 133.584C291.929 133.017 291.653 132.316 291.617 131.483H292.968ZM300.132 125.78H301.562V134.108H300.132V125.78ZM300.132 122.631H301.562V124.225H300.132V122.631ZM303.976 123.405H305.398V125.74H306.734V126.889H305.398V132.35C305.398 132.642 305.497 132.837 305.695 132.936C305.804 132.993 305.987 133.022 306.242 133.022C306.31 133.022 306.382 133.022 306.461 133.022C306.539 133.017 306.63 133.009 306.734 132.998V134.108C306.573 134.155 306.403 134.188 306.226 134.209C306.054 134.23 305.867 134.24 305.664 134.24C305.007 134.24 304.562 134.074 304.328 133.74C304.093 133.402 303.976 132.964 303.976 132.428V126.889H302.843V125.74H303.976V123.405ZM311.632 125.553C312.226 125.553 312.802 125.694 313.359 125.975C313.916 126.251 314.341 126.61 314.632 127.053C314.914 127.475 315.101 127.967 315.195 128.53C315.278 128.915 315.32 129.53 315.32 130.373H309.187C309.213 131.222 309.414 131.905 309.789 132.42C310.164 132.931 310.744 133.186 311.531 133.186C312.265 133.186 312.851 132.944 313.289 132.459C313.539 132.178 313.716 131.852 313.82 131.483H315.203C315.166 131.79 315.044 132.134 314.836 132.514C314.632 132.889 314.403 133.196 314.148 133.436C313.721 133.852 313.192 134.134 312.562 134.28C312.224 134.363 311.841 134.405 311.414 134.405C310.372 134.405 309.489 134.027 308.765 133.272C308.041 132.511 307.679 131.449 307.679 130.084C307.679 128.74 308.044 127.649 308.773 126.811C309.502 125.972 310.455 125.553 311.632 125.553ZM313.875 129.256C313.817 128.647 313.685 128.16 313.476 127.795C313.091 127.118 312.448 126.78 311.547 126.78C310.901 126.78 310.359 127.014 309.922 127.483C309.484 127.946 309.252 128.537 309.226 129.256H313.875ZM319.257 125.967C319.648 125.894 319.906 125.608 320.031 125.108C320.104 124.811 320.13 124.553 320.109 124.334H319.257V122.631H320.929V124.201C320.929 124.821 320.802 125.376 320.547 125.865C320.291 126.35 319.862 126.628 319.257 126.701V125.967ZM316.632 125.967C317.023 125.894 317.284 125.608 317.414 125.108C317.487 124.811 317.51 124.553 317.484 124.334H316.632V122.631H318.297V124.201C318.297 124.821 318.169 125.373 317.914 125.858C317.659 126.337 317.231 126.618 316.632 126.701V125.967ZM322.718 132.405H324.351V134.108H322.718V132.405Z" fill="black"/>
<g filter="url(#filter1_d_242_3056)">
<rect x="418.646" y="30.915" width="45.4381" height="16.7404" rx="4.03895" fill="white"/>
<rect x="418.697" y="30.9655" width="45.3372" height="16.6394" rx="3.98846" stroke="black" stroke-width="0.100974"/>
</g>
<path d="M430.649 36.1224C431.475 36.1224 432.115 36.3399 432.571 36.7747C433.026 37.2096 433.279 37.7036 433.33 38.2568H432.469C432.371 37.8367 432.176 37.5039 431.883 37.2584C431.593 37.0129 431.185 36.8901 430.658 36.8901C430.016 36.8901 429.497 37.1164 429.101 37.569C428.707 38.0187 428.511 38.7094 428.511 39.6412C428.511 40.4045 428.688 41.0242 429.043 41.5005C429.401 41.9738 429.934 42.2104 430.641 42.2104C431.291 42.2104 431.787 41.9605 432.127 41.4605C432.308 41.1973 432.442 40.8511 432.531 40.4222H433.392C433.315 41.1085 433.06 41.6839 432.628 42.1483C432.111 42.7074 431.413 42.987 430.534 42.987C429.777 42.987 429.141 42.7577 428.626 42.2992C427.949 41.6928 427.61 40.7565 427.61 39.4904C427.61 38.529 427.864 37.7406 428.373 37.1253C428.923 36.4567 429.682 36.1224 430.649 36.1224ZM434.976 41.5537C434.976 41.7845 435.06 41.9664 435.229 42.0995C435.397 42.2326 435.597 42.2992 435.828 42.2992C436.109 42.2992 436.381 42.2341 436.644 42.104C437.088 41.888 437.31 41.5345 437.31 41.0434V40.4C437.212 40.4621 437.086 40.5139 436.933 40.5553C436.779 40.5967 436.628 40.6263 436.48 40.6441L435.996 40.7062C435.706 40.7447 435.489 40.8053 435.344 40.8881C435.099 41.0272 434.976 41.249 434.976 41.5537ZM436.91 39.9385C437.094 39.9149 437.217 39.838 437.279 39.7078C437.314 39.6368 437.332 39.5347 437.332 39.4016C437.332 39.1295 437.234 38.9327 437.039 38.8115C436.847 38.6872 436.57 38.6251 436.209 38.6251C435.792 38.6251 435.496 38.7375 435.322 38.9623C435.224 39.0866 435.161 39.2715 435.131 39.517H434.386C434.4 38.9313 434.59 38.5245 434.954 38.2967C435.32 38.066 435.745 37.9506 436.227 37.9506C436.786 37.9506 437.24 38.0571 437.589 38.2701C437.936 38.4831 438.109 38.8144 438.109 39.2641V42.0019C438.109 42.0847 438.125 42.1513 438.157 42.2016C438.193 42.2519 438.265 42.277 438.375 42.277C438.41 42.277 438.45 42.2755 438.495 42.2726C438.539 42.2667 438.586 42.2593 438.637 42.2504V42.8405C438.512 42.876 438.418 42.8982 438.353 42.9071C438.288 42.916 438.199 42.9204 438.086 42.9204C437.811 42.9204 437.612 42.8228 437.487 42.6276C437.422 42.524 437.376 42.3776 437.35 42.1883C437.187 42.4013 436.953 42.5861 436.649 42.7429C436.344 42.8997 436.008 42.9781 435.641 42.9781C435.201 42.9781 434.84 42.845 434.559 42.5787C434.281 42.3095 434.142 41.9738 434.142 41.5715C434.142 41.1307 434.279 40.789 434.554 40.5465C434.829 40.3039 435.19 40.1545 435.637 40.0983L436.91 39.9385ZM439.422 38.066H440.181V38.7405C440.406 38.4624 440.644 38.2627 440.895 38.1414C441.147 38.0201 441.426 37.9595 441.734 37.9595C442.408 37.9595 442.864 38.1947 443.101 38.665C443.231 38.9224 443.296 39.2907 443.296 39.7699V42.8184H442.484V39.8232C442.484 39.5333 442.441 39.2996 442.355 39.1221C442.213 38.8263 441.956 38.6783 441.583 38.6783C441.394 38.6783 441.238 38.6976 441.117 38.736C440.898 38.8011 440.706 38.9313 440.54 39.1265C440.407 39.2833 440.32 39.446 440.278 39.6146C440.24 39.7803 440.221 40.0184 440.221 40.329V42.8184H439.422V38.066ZM446.313 37.9284C446.849 37.9284 447.283 38.0586 447.618 38.3189C447.955 38.5792 448.158 39.0274 448.226 39.6634H447.449C447.402 39.3706 447.294 39.128 447.125 38.9357C446.957 38.7405 446.686 38.6428 446.313 38.6428C445.804 38.6428 445.44 38.8913 445.222 39.3883C445.08 39.7108 445.009 40.1086 445.009 40.582C445.009 41.0582 445.109 41.4591 445.31 41.7845C445.511 42.1099 445.828 42.2726 446.26 42.2726C446.591 42.2726 446.853 42.172 447.045 41.9708C447.241 41.7667 447.375 41.4886 447.449 41.1366H448.226C448.137 41.7667 447.915 42.2282 447.56 42.5211C447.205 42.811 446.751 42.9559 446.198 42.9559C445.577 42.9559 445.081 42.7296 444.711 42.277C444.342 41.8214 444.157 41.2535 444.157 40.5731C444.157 39.7389 444.359 39.0895 444.765 38.6251C445.17 38.1607 445.686 37.9284 446.313 37.9284ZM451.003 37.9595C451.341 37.9595 451.668 38.0394 451.984 38.1991C452.301 38.3559 452.542 38.56 452.707 38.8115C452.867 39.0511 452.974 39.3306 453.027 39.6501C453.074 39.869 453.098 40.2181 453.098 40.6973H449.615C449.629 41.1795 449.743 41.567 449.956 41.8599C450.169 42.1498 450.499 42.2948 450.946 42.2948C451.363 42.2948 451.696 42.1572 451.944 41.8821C452.086 41.7223 452.187 41.5375 452.246 41.3274H453.031C453.011 41.502 452.941 41.6972 452.823 41.9131C452.707 42.1261 452.577 42.3007 452.432 42.4368C452.19 42.6734 451.889 42.8332 451.531 42.916C451.339 42.9633 451.122 42.987 450.879 42.987C450.288 42.987 449.786 42.7725 449.375 42.3436C448.964 41.9117 448.758 41.3082 448.758 40.5331C448.758 39.7699 448.965 39.1502 449.379 38.6739C449.793 38.1976 450.335 37.9595 451.003 37.9595ZM452.277 40.0628C452.244 39.7167 452.169 39.4401 452.051 39.233C451.832 38.8484 451.466 38.6562 450.955 38.6562C450.588 38.6562 450.28 38.7893 450.032 39.0555C449.783 39.3188 449.652 39.6546 449.637 40.0628H452.277ZM454.105 36.2999H454.904V42.8184H454.105V36.2999Z" fill="black"/>
<g clip-path="url(#clip0_242_3056)">
<path d="M380.621 153H202V331.621H380.621V153Z" fill="white"/>
<path d="M275.909 165.319H269.75V171.478H275.909V165.319Z" fill="black"/>
<path d="M288.23 165.319H282.07V171.478H288.23V165.319Z" fill="black"/>
<path d="M306.708 165.319H300.549V171.478H306.708V165.319Z" fill="black"/>
<path d="M269.751 171.478H263.592V177.637H269.751V171.478Z" fill="black"/>
<path d="M269.751 177.637H263.592V183.797H269.751V177.637Z" fill="black"/>
<path d="M275.909 177.637H269.75V183.797H275.909V177.637Z" fill="black"/>
<path d="M282.071 177.637H275.912V183.797H282.071V177.637Z" fill="black"/>
<path d="M294.388 177.637H288.229V183.796H294.388V177.637Z" fill="black"/>
<path d="M306.708 177.637H300.549V183.797H306.708V177.637Z" fill="black"/>
<path d="M319.028 177.637H312.869V183.797H319.028V177.637Z" fill="black"/>
<path d="M269.751 183.797H263.592V189.957H269.751V183.797Z" fill="black"/>
<path d="M282.071 183.797H275.912V189.957H282.071V183.797Z" fill="black"/>
<path d="M288.23 183.797H282.07V189.957H288.23V183.797Z" fill="black"/>
<path d="M294.388 183.798H288.229V189.957H294.388V183.798Z" fill="black"/>
<path d="M300.548 183.797H294.389V189.957H300.548V183.797Z" fill="black"/>
<path d="M312.868 183.797H306.709V189.957H312.868V183.797Z" fill="black"/>
<path d="M319.028 183.797H312.869V189.957H319.028V183.797Z" fill="black"/>
<path d="M282.071 189.956H275.912V196.116H282.071V189.956Z" fill="black"/>
<path d="M294.388 189.956H288.229V196.116H294.388V189.956Z" fill="black"/>
<path d="M300.548 189.956H294.389V196.116H300.548V189.956Z" fill="black"/>
<path d="M275.909 196.115H269.75V202.275H275.909V196.115Z" fill="black"/>
<path d="M282.071 196.116H275.912V202.275H282.071V196.116Z" fill="black"/>
<path d="M288.23 196.116H282.07V202.275H288.23V196.116Z" fill="black"/>
<path d="M294.388 196.116H288.229V202.275H294.388V196.116Z" fill="black"/>
<path d="M300.548 196.116H294.389V202.275H300.548V196.116Z" fill="black"/>
<path d="M306.708 196.115H300.549V202.275H306.708V196.115Z" fill="black"/>
<path d="M319.028 196.116H312.869V202.275H319.028V196.116Z" fill="black"/>
<path d="M269.751 202.275H263.592V208.435H269.751V202.275Z" fill="black"/>
<path d="M282.071 202.275H275.912V208.435H282.071V202.275Z" fill="black"/>
<path d="M294.388 202.275H288.229V208.435H294.388V202.275Z" fill="black"/>
<path d="M306.708 202.275H300.549V208.435H306.708V202.275Z" fill="black"/>
<path d="M319.028 202.275H312.869V208.435H319.028V202.275Z" fill="black"/>
<path d="M269.751 208.434H263.592V214.594H269.751V208.434Z" fill="black"/>
<path d="M282.071 208.434H275.912V214.594H282.071V208.434Z" fill="black"/>
<path d="M288.23 208.434H282.07V214.594H288.23V208.434Z" fill="black"/>
<path d="M294.388 208.434H288.229V214.594H294.388V208.434Z" fill="black"/>
<path d="M306.708 208.434H300.549V214.594H306.708V208.434Z" fill="black"/>
<path d="M312.868 208.434H306.709V214.594H312.868V208.434Z" fill="black"/>
<path d="M220.476 214.594H214.316V220.753H220.476V214.594Z" fill="black"/>
<path d="M257.431 214.593H251.271V220.753H257.431V214.593Z" fill="black"/>
<path d="M269.751 214.593H263.592V220.753H269.751V214.593Z" fill="black"/>
<path d="M275.909 214.593H269.75V220.753H275.909V214.593Z" fill="black"/>
<path d="M312.868 214.593H306.709V220.753H312.868V214.593Z" fill="black"/>
<path d="M319.028 214.593H312.869V220.753H319.028V214.593Z" fill="black"/>
<path d="M325.183 214.593H319.023V220.753H325.183V214.593Z" fill="black"/>
<path d="M331.343 214.593H325.184V220.753H331.343V214.593Z" fill="black"/>
<path d="M349.821 214.593H343.662V220.753H349.821V214.593Z" fill="black"/>
<path d="M355.984 214.594H349.824V220.753H355.984V214.594Z" fill="black"/>
<path d="M362.144 214.593H355.984V220.752H362.144V214.593Z" fill="black"/>
<path d="M226.638 220.753H220.479V226.912H226.638V220.753Z" fill="black"/>
<path d="M232.794 220.753H226.635V226.912H232.794V220.753Z" fill="black"/>
<path d="M238.954 220.753H232.795V226.912H238.954V220.753Z" fill="black"/>
<path d="M245.116 220.753H238.957V226.912H245.116V220.753Z" fill="black"/>
<path d="M251.277 220.753H245.117V226.912H251.277V220.753Z" fill="black"/>
<path d="M263.593 220.752H257.434V226.912H263.593V220.752Z" fill="black"/>
<path d="M269.751 220.753H263.592V226.912H269.751V220.753Z" fill="black"/>
<path d="M275.909 220.753H269.75V226.912H275.909V220.753Z" fill="black"/>
<path d="M282.071 220.753H275.912V226.912H282.071V220.753Z" fill="black"/>
<path d="M288.23 220.753H282.07V226.912H288.23V220.753Z" fill="black"/>
<path d="M294.388 220.752H288.229V226.912H294.388V220.752Z" fill="black"/>
<path d="M300.548 220.753H294.389V226.912H300.548V220.753Z" fill="black"/>
<path d="M306.708 220.753H300.549V226.912H306.708V220.753Z" fill="black"/>
<path d="M312.868 220.753H306.709V226.912H312.868V220.753Z" fill="black"/>
<path d="M337.505 220.752H331.346V226.912H337.505V220.752Z" fill="black"/>
<path d="M343.663 220.753H337.504V226.912H343.663V220.753Z" fill="black"/>
<path d="M349.821 220.753H343.662V226.912H349.821V220.753Z" fill="black"/>
<path d="M355.984 220.752H349.824V226.912H355.984V220.752Z" fill="black"/>
<path d="M362.144 220.752H355.984V226.912H362.144V220.752Z" fill="black"/>
<path d="M226.638 226.913H220.479V233.072H226.638V226.913Z" fill="black"/>
<path d="M232.794 226.913H226.635V233.072H232.794V226.913Z" fill="black"/>
<path d="M245.116 226.913H238.957V233.072H245.116V226.913Z" fill="black"/>
<path d="M251.277 226.913H245.117V233.072H251.277V226.913Z" fill="black"/>
<path d="M257.431 226.913H251.271V233.072H257.431V226.913Z" fill="black"/>
<path d="M263.593 226.913H257.434V233.072H263.593V226.913Z" fill="black"/>
<path d="M269.751 226.913H263.592V233.072H269.751V226.913Z" fill="black"/>
<path d="M275.909 226.913H269.75V233.072H275.909V226.913Z" fill="black"/>
<path d="M282.071 226.913H275.912V233.072H282.071V226.913Z" fill="black"/>
<path d="M288.23 226.913H282.07V233.072H288.23V226.913Z" fill="black"/>
<path d="M300.548 226.913H294.389V233.072H300.548V226.913Z" fill="black"/>
<path d="M306.708 226.913H300.549V233.072H306.708V226.913Z" fill="black"/>
<path d="M312.868 226.913H306.709V233.072H312.868V226.913Z" fill="black"/>
<path d="M319.028 226.913H312.869V233.072H319.028V226.913Z" fill="black"/>
<path d="M331.343 226.913H325.184V233.072H331.343V226.913Z" fill="black"/>
<path d="M349.821 226.913H343.662V233.072H349.821V226.913Z" fill="black"/>
<path d="M362.144 226.913H355.984V233.072H362.144V226.913Z" fill="black"/>
<path d="M368.302 226.913H362.143V233.072H368.302V226.913Z" fill="black"/>
<path d="M232.794 233.072H226.635V239.231H232.794V233.072Z" fill="black"/>
<path d="M245.116 233.072H238.957V239.231H245.116V233.072Z" fill="black"/>
<path d="M269.751 233.072H263.592V239.232H269.751V233.072Z" fill="black"/>
<path d="M282.071 233.072H275.912V239.231H282.071V233.072Z" fill="black"/>
<path d="M288.23 233.072H282.07V239.231H288.23V233.072Z" fill="black"/>
<path d="M294.388 233.072H288.229V239.231H294.388V233.072Z" fill="black"/>
<path d="M300.548 233.072H294.389V239.231H300.548V233.072Z" fill="black"/>
<path d="M325.183 233.072H319.023V239.231H325.183V233.072Z" fill="black"/>
<path d="M331.343 233.072H325.184V239.232H331.343V233.072Z" fill="black"/>
<path d="M349.821 233.072H343.662V239.231H349.821V233.072Z" fill="black"/>
<path d="M368.302 233.072H362.143V239.231H368.302V233.072Z" fill="black"/>
<path d="M220.476 239.231H214.316V245.391H220.476V239.231Z" fill="black"/>
<path d="M226.638 239.231H220.479V245.391H226.638V239.231Z" fill="black"/>
<path d="M245.116 239.231H238.957V245.391H245.116V239.231Z" fill="black"/>
<path d="M251.277 239.231H245.117V245.391H251.277V239.231Z" fill="black"/>
<path d="M257.431 239.231H251.271V245.391H257.431V239.231Z" fill="black"/>
<path d="M263.593 239.231H257.434V245.391H263.593V239.231Z" fill="black"/>
<path d="M269.751 239.231H263.592V245.391H269.751V239.231Z" fill="black"/>
<path d="M275.909 239.231H269.75V245.391H275.909V239.231Z" fill="black"/>
<path d="M282.071 239.231H275.912V245.391H282.071V239.231Z" fill="black"/>
<path d="M288.23 239.231H282.07V245.391H288.23V239.231Z" fill="black"/>
<path d="M294.388 239.231H288.229V245.391H294.388V239.231Z" fill="black"/>
<path d="M300.548 239.231H294.389V245.391H300.548V239.231Z" fill="black"/>
<path d="M331.343 239.231H325.184V245.391H331.343V239.231Z" fill="black"/>
<path d="M368.302 239.231H362.143V245.391H368.302V239.231Z" fill="black"/>
<path d="M220.476 245.39H214.316V251.55H220.476V245.39Z" fill="black"/>
<path d="M226.638 245.391H220.479V251.55H226.638V245.391Z" fill="black"/>
<path d="M238.954 245.391H232.795V251.55H238.954V245.391Z" fill="black"/>
<path d="M245.116 245.391H238.957V251.55H245.116V245.391Z" fill="black"/>
<path d="M275.909 245.39H269.75V251.549H275.909V245.39Z" fill="black"/>
<path d="M312.868 245.391H306.709V251.55H312.868V245.391Z" fill="black"/>
<path d="M319.028 245.391H312.869V251.55H319.028V245.391Z" fill="black"/>
<path d="M325.183 245.391H319.023V251.55H325.183V245.391Z" fill="black"/>
<path d="M337.505 245.391H331.346V251.55H337.505V245.391Z" fill="black"/>
<path d="M362.144 245.391H355.984V251.55H362.144V245.391Z" fill="black"/>
<path d="M220.476 251.55H214.316V257.709H220.476V251.55Z" fill="black"/>
<path d="M245.116 251.55H238.957V257.709H245.116V251.55Z" fill="black"/>
<path d="M257.431 251.55H251.271V257.709H257.431V251.55Z" fill="black"/>
<path d="M269.751 251.55H263.592V257.709H269.751V251.55Z" fill="black"/>
<path d="M275.909 251.55H269.75V257.709H275.909V251.55Z" fill="black"/>
<path d="M282.071 251.55H275.912V257.709H282.071V251.55Z" fill="black"/>
<path d="M288.23 251.55H282.07V257.709H288.23V251.55Z" fill="black"/>
<path d="M294.388 251.55H288.229V257.709H294.388V251.55Z" fill="black"/>
<path d="M312.868 251.55H306.709V257.709H312.868V251.55Z" fill="black"/>
<path d="M319.028 251.55H312.869V257.709H319.028V251.55Z" fill="black"/>
<path d="M331.343 251.55H325.184V257.709H331.343V251.55Z" fill="black"/>
<path d="M337.505 251.55H331.346V257.709H337.505V251.55Z" fill="black"/>
<path d="M343.663 251.55H337.504V257.709H343.663V251.55Z" fill="black"/>
<path d="M349.821 251.55H343.662V257.709H349.821V251.55Z" fill="black"/>
<path d="M362.144 251.55H355.984V257.709H362.144V251.55Z" fill="black"/>
<path d="M368.302 251.55H362.143V257.709H368.302V251.55Z" fill="black"/>
<path d="M220.476 257.708H214.316V263.868H220.476V257.708Z" fill="black"/>
<path d="M232.794 257.708H226.635V263.868H232.794V257.708Z" fill="black"/>
<path d="M238.954 257.708H232.795V263.868H238.954V257.708Z" fill="black"/>
<path d="M251.277 257.708H245.117V263.868H251.277V257.708Z" fill="black"/>
<path d="M288.23 257.708H282.07V263.868H288.23V257.708Z" fill="black"/>
<path d="M325.183 257.708H319.023V263.868H325.183V257.708Z" fill="black"/>
<path d="M337.505 257.708H331.346V263.868H337.505V257.708Z" fill="black"/>
<path d="M349.821 257.708H343.662V263.868H349.821V257.708Z" fill="black"/>
<path d="M355.984 257.708H349.824V263.868H355.984V257.708Z" fill="black"/>
<path d="M368.302 257.708H362.143V263.868H368.302V257.708Z" fill="black"/>
<path d="M220.476 263.869H214.316V270.028H220.476V263.869Z" fill="black"/>
<path d="M232.794 263.869H226.635V270.028H232.794V263.869Z" fill="black"/>
<path d="M251.277 263.869H245.117V270.028H251.277V263.869Z" fill="black"/>
<path d="M257.431 263.869H251.271V270.028H257.431V263.869Z" fill="black"/>
<path d="M263.593 263.869H257.434V270.028H263.593V263.869Z" fill="black"/>
<path d="M269.751 263.869H263.592V270.028H269.751V263.869Z" fill="black"/>
<path d="M275.909 263.869H269.75V270.028H275.909V263.869Z" fill="black"/>
<path d="M282.071 263.869H275.912V270.028H282.071V263.869Z" fill="black"/>
<path d="M288.23 263.869H282.07V270.028H288.23V263.869Z" fill="black"/>
<path d="M312.868 263.869H306.709V270.028H312.868V263.869Z" fill="black"/>
<path d="M319.028 263.869H312.869V270.028H319.028V263.869Z" fill="black"/>
<path d="M325.183 263.869H319.023V270.028H325.183V263.869Z" fill="black"/>
<path d="M331.343 263.869H325.184V270.028H331.343V263.869Z" fill="black"/>
<path d="M337.505 263.869H331.346V270.028H337.505V263.869Z" fill="black"/>
<path d="M343.663 263.869H337.504V270.028H343.663V263.869Z" fill="black"/>
<path d="M355.984 263.869H349.824V270.028H355.984V263.869Z" fill="black"/>
<path d="M269.751 270.028H263.592V276.188H269.751V270.028Z" fill="black"/>
<path d="M275.909 270.028H269.75V276.188H275.909V270.028Z" fill="black"/>
<path d="M294.388 270.028H288.229V276.187H294.388V270.028Z" fill="black"/>
<path d="M300.548 270.028H294.389V276.187H300.548V270.028Z" fill="black"/>
<path d="M306.708 270.028H300.549V276.188H306.708V270.028Z" fill="black"/>
<path d="M319.028 270.028H312.869V276.187H319.028V270.028Z" fill="black"/>
<path d="M343.663 270.028H337.504V276.187H343.663V270.028Z" fill="black"/>
<path d="M282.071 276.186H275.912V282.345H282.071V276.186Z" fill="black"/>
<path d="M288.23 276.186H282.07V282.345H288.23V276.186Z" fill="black"/>
<path d="M319.028 276.186H312.869V282.345H319.028V276.186Z" fill="black"/>
<path d="M331.343 276.186H325.184V282.345H331.343V276.186Z" fill="black"/>
<path d="M343.663 276.186H337.504V282.345H343.663V276.186Z" fill="black"/>
<path d="M368.302 276.186H362.143V282.345H368.302V276.186Z" fill="black"/>
<path d="M275.909 282.347H269.75V288.506H275.909V282.347Z" fill="black"/>
<path d="M294.388 282.347H288.229V288.506H294.388V282.347Z" fill="black"/>
<path d="M300.548 282.347H294.389V288.506H300.548V282.347Z" fill="black"/>
<path d="M312.868 282.347H306.709V288.506H312.868V282.347Z" fill="black"/>
<path d="M319.028 282.347H312.869V288.506H319.028V282.347Z" fill="black"/>
<path d="M343.663 282.347H337.504V288.506H343.663V282.347Z" fill="black"/>
<path d="M362.144 282.347H355.984V288.506H362.144V282.347Z" fill="black"/>
<path d="M294.388 288.506H288.229V294.665H294.388V288.506Z" fill="black"/>
<path d="M306.708 288.506H300.549V294.665H306.708V288.506Z" fill="black"/>
<path d="M312.868 288.506H306.709V294.665H312.868V288.506Z" fill="black"/>
<path d="M319.028 288.506H312.869V294.665H319.028V288.506Z" fill="black"/>
<path d="M325.183 288.506H319.023V294.665H325.183V288.506Z" fill="black"/>
<path d="M331.343 288.506H325.184V294.665H331.343V288.506Z" fill="black"/>
<path d="M337.505 288.506H331.346V294.665H337.505V288.506Z" fill="black"/>
<path d="M343.663 288.506H337.504V294.665H343.663V288.506Z" fill="black"/>
<path d="M355.984 288.506H349.824V294.665H355.984V288.506Z" fill="black"/>
<path d="M368.302 288.506H362.143V294.665H368.302V288.506Z" fill="black"/>
<path d="M275.909 294.665H269.75V300.825H275.909V294.665Z" fill="black"/>
<path d="M306.708 294.665H300.549V300.825H306.708V294.665Z" fill="black"/>
<path d="M312.868 294.665H306.709V300.825H312.868V294.665Z" fill="black"/>
<path d="M325.183 294.665H319.023V300.825H325.183V294.665Z" fill="black"/>
<path d="M331.343 294.665H325.184V300.825H331.343V294.665Z" fill="black"/>
<path d="M362.144 294.665H355.984V300.825H362.144V294.665Z" fill="black"/>
<path d="M368.302 294.665H362.143V300.825H368.302V294.665Z" fill="black"/>
<path d="M288.23 300.823H282.07V306.983H288.23V300.823Z" fill="black"/>
<path d="M294.388 300.824H288.229V306.983H294.388V300.824Z" fill="black"/>
<path d="M312.868 300.823H306.709V306.983H312.868V300.823Z" fill="black"/>
<path d="M319.028 300.823H312.869V306.983H319.028V300.823Z" fill="black"/>
<path d="M325.183 300.823H319.023V306.983H325.183V300.823Z" fill="black"/>
<path d="M349.821 300.823H343.662V306.983H349.821V300.823Z" fill="black"/>
<path d="M355.984 300.823H349.824V306.983H355.984V300.823Z" fill="black"/>
<path d="M368.302 300.823H362.143V306.983H368.302V300.823Z" fill="black"/>
<path d="M282.071 306.984H275.912V313.143H282.071V306.984Z" fill="black"/>
<path d="M288.23 306.984H282.07V313.143H288.23V306.984Z" fill="black"/>
<path d="M306.708 306.984H300.549V313.143H306.708V306.984Z" fill="black"/>
<path d="M319.028 306.984H312.869V313.143H319.028V306.984Z" fill="black"/>
<path d="M331.343 306.984H325.184V313.143H331.343V306.984Z" fill="black"/>
<path d="M337.505 306.983H331.346V313.143H337.505V306.983Z" fill="black"/>
<path d="M343.663 306.984H337.504V313.143H343.663V306.984Z" fill="black"/>
<path d="M368.302 306.984H362.143V313.143H368.302V306.984Z" fill="black"/>
<path d="M269.751 313.142H263.592V319.301H269.751V313.142Z" fill="black"/>
<path d="M275.909 313.142H269.75V319.301H275.909V313.142Z" fill="black"/>
<path d="M282.071 313.142H275.912V319.301H282.071V313.142Z" fill="black"/>
<path d="M300.548 313.142H294.389V319.301H300.548V313.142Z" fill="black"/>
<path d="M306.708 313.142H300.549V319.301H306.708V313.142Z" fill="black"/>
<path d="M319.028 313.142H312.869V319.301H319.028V313.142Z" fill="black"/>
<path d="M349.821 313.142H343.662V319.301H349.821V313.142Z" fill="black"/>
<path d="M368.302 313.142H362.143V319.301H368.302V313.142Z" fill="black"/>
<path d="M250.964 165.319H220.784H214.316V171.786V201.967V208.434H220.784H250.964H257.432V201.967V171.786V165.319H250.964ZM250.964 201.967H220.784V171.786H250.964V201.967Z" fill="black"/>
<path d="M361.832 165.319H331.651H325.184V171.786V201.967V208.434H331.651H361.832H368.299V201.967V171.786V165.319H361.832ZM361.832 201.967H331.651V171.786H361.832V201.967Z" fill="black"/>
<path d="M250.964 276.186H220.784H214.316V282.653V312.834V319.301H220.784H250.964H257.432V312.834V282.653V276.186H250.964ZM250.964 312.834H220.784V282.653H250.964V312.834Z" fill="black"/>
<path d="M245.113 177.637H226.635V196.115H245.113V177.637Z" fill="black"/>
<path d="M355.982 177.637H337.504V196.115H355.982V177.637Z" fill="black"/>
<path d="M245.113 288.506H226.635V306.984H245.113V288.506Z" fill="black"/>
</g>
<defs>
<filter id="filter0_d_242_3056" x="87.8256" y="0.622718" width="412.132" height="361.132" filterUnits="userSpaceOnUse" color-interpolation-filters="sRGB">
<feFlood flood-opacity="0" result="BackgroundImageFix"/>
<feColorMatrix in="SourceAlpha" type="matrix" values="0 0 0 0 0 0 0 0 0 0 0 0 0 0 0 0 0 0 127 0" result="hardAlpha"/>
<feOffset dx="2.39148" dy="3.18864"/>
<feGaussianBlur stdDeviation="4.78296"/>
<feComposite in2="hardAlpha" operator="out"/>
<feColorMatrix type="matrix" values="0 0 0 0 0 0 0 0 0 0 0 0 0 0 0 0 0 0 0.25 0"/>
<feBlend mode="normal" in2="BackgroundImageFix" result="effect1_dropShadow_242_3056"/>
<feBlend mode="normal" in="SourceGraphic" in2="effect1_dropShadow_242_3056" result="shape"/>
</filter>
<filter id="filter1_d_242_3056" x="414.608" y="27.8858" width="53.5154" height="24.8184" filterUnits="userSpaceOnUse" color-interpolation-filters="sRGB">
<feFlood flood-opacity="0" result="BackgroundImageFix"/>
<feColorMatrix in="SourceAlpha" type="matrix" values="0 0 0 0 0 0 0 0 0 0 0 0 0 0 0 0 0 0 127 0" result="hardAlpha"/>
<feOffset dy="1.00974"/>
<feGaussianBlur stdDeviation="2.01947"/>
<feComposite in2="hardAlpha" operator="out"/>
<feColorMatrix type="matrix" values="0 0 0 0 0 0 0 0 0 0 0 0 0 0 0 0 0 0 0.15 0"/>
<feBlend mode="normal" in2="BackgroundImageFix" result="effect1_dropShadow_242_3056"/>
<feBlend mode="normal" in="SourceGraphic" in2="effect1_dropShadow_242_3056" result="shape"/>
</filter>
<clipPath id="clip0_242_3056">
<rect width="178.621" height="178.621" fill="white" transform="translate(202 153)"/>
</clipPath>
</defs>
</svg>
