<?xml version="1.0"?>
<svg xmlns="http://www.w3.org/2000/svg" xmlns:xlink="http://www.w3.org/1999/xlink" width="1551.733333272" height="921.1999999999999" font-family="Consolas, Menlo, 'Bitstream Vera Sans Mono', monospace, 'Powerline Symbols'" font-size="14px">
<style>
<!-- asciinema theme -->

.default-text-fill {fill: #cccccc}
.default-bg-fill {fill: #121314}

.c-0 {fill: #000000}
.c-1 {fill: #dd3c69}
.c-2 {fill: #4ebf22}
.c-3 {fill: #ddaf3c}
.c-4 {fill: #26b0d7}
.c-5 {fill: #b954e1}
.c-6 {fill: #54e1b9}
.c-7 {fill: #d9d9d9}
.c-8 {fill: #4d4d4d}
.c-9 {fill: #dd3c69}
.c-10 {fill: #4ebf22}
.c-11 {fill: #ddaf3c}
.c-12 {fill: #26b0d7}
.c-13 {fill: #b954e1}
.c-14 {fill: #54e1b9}
.c-15 {fill: #ffffff}
.c-8, .c-9, .c-10, .c-11, .c-12, .c-13, .c-14, .c-15 {font-weight: bold}

<!-- 256 colors -->

.c-16 {fill: #000000}
.c-17 {fill: #00005f}
.c-18 {fill: #000087}
.c-19 {fill: #0000af}
.c-20 {fill: #0000d7}
.c-21 {fill: #0000ff}
.c-22 {fill: #005f00}
.c-23 {fill: #005f5f}
.c-24 {fill: #005f87}
.c-25 {fill: #005faf}
.c-26 {fill: #005fd7}
.c-27 {fill: #005fff}
.c-28 {fill: #008700}
.c-29 {fill: #00875f}
.c-30 {fill: #008787}
.c-31 {fill: #0087af}
.c-32 {fill: #0087d7}
.c-33 {fill: #0087ff}
.c-34 {fill: #00af00}
.c-35 {fill: #00af5f}
.c-36 {fill: #00af87}
.c-37 {fill: #00afaf}
.c-38 {fill: #00afd7}
.c-39 {fill: #00afff}
.c-40 {fill: #00d700}
.c-41 {fill: #00d75f}
.c-42 {fill: #00d787}
.c-43 {fill: #00d7af}
.c-44 {fill: #00d7d7}
.c-45 {fill: #00d7ff}
.c-46 {fill: #00ff00}
.c-47 {fill: #00ff5f}
.c-48 {fill: #00ff87}
.c-49 {fill: #00ffaf}
.c-50 {fill: #00ffd7}
.c-51 {fill: #00ffff}
.c-52 {fill: #5f0000}
.c-53 {fill: #5f005f}
.c-54 {fill: #5f0087}
.c-55 {fill: #5f00af}
.c-56 {fill: #5f00d7}
.c-57 {fill: #5f00ff}
.c-58 {fill: #5f5f00}
.c-59 {fill: #5f5f5f}
.c-60 {fill: #5f5f87}
.c-61 {fill: #5f5faf}
.c-62 {fill: #5f5fd7}
.c-63 {fill: #5f5fff}
.c-64 {fill: #5f8700}
.c-65 {fill: #5f875f}
.c-66 {fill: #5f8787}
.c-67 {fill: #5f87af}
.c-68 {fill: #5f87d7}
.c-69 {fill: #5f87ff}
.c-70 {fill: #5faf00}
.c-71 {fill: #5faf5f}
.c-72 {fill: #5faf87}
.c-73 {fill: #5fafaf}
.c-74 {fill: #5fafd7}
.c-75 {fill: #5fafff}
.c-76 {fill: #5fd700}
.c-77 {fill: #5fd75f}
.c-78 {fill: #5fd787}
.c-79 {fill: #5fd7af}
.c-80 {fill: #5fd7d7}
.c-81 {fill: #5fd7ff}
.c-82 {fill: #5fff00}
.c-83 {fill: #5fff5f}
.c-84 {fill: #5fff87}
.c-85 {fill: #5fffaf}
.c-86 {fill: #5fffd7}
.c-87 {fill: #5fffff}
.c-88 {fill: #870000}
.c-89 {fill: #87005f}
.c-90 {fill: #870087}
.c-91 {fill: #8700af}
.c-92 {fill: #8700d7}
.c-93 {fill: #8700ff}
.c-94 {fill: #875f00}
.c-95 {fill: #875f5f}
.c-96 {fill: #875f87}
.c-97 {fill: #875faf}
.c-98 {fill: #875fd7}
.c-99 {fill: #875fff}
.c-100 {fill: #878700}
.c-101 {fill: #87875f}
.c-102 {fill: #878787}
.c-103 {fill: #8787af}
.c-104 {fill: #8787d7}
.c-105 {fill: #8787ff}
.c-106 {fill: #87af00}
.c-107 {fill: #87af5f}
.c-108 {fill: #87af87}
.c-109 {fill: #87afaf}
.c-110 {fill: #87afd7}
.c-111 {fill: #87afff}
.c-112 {fill: #87d700}
.c-113 {fill: #87d75f}
.c-114 {fill: #87d787}
.c-115 {fill: #87d7af}
.c-116 {fill: #87d7d7}
.c-117 {fill: #87d7ff}
.c-118 {fill: #87ff00}
.c-119 {fill: #87ff5f}
.c-120 {fill: #87ff87}
.c-121 {fill: #87ffaf}
.c-122 {fill: #87ffd7}
.c-123 {fill: #87ffff}
.c-124 {fill: #af0000}
.c-125 {fill: #af005f}
.c-126 {fill: #af0087}
.c-127 {fill: #af00af}
.c-128 {fill: #af00d7}
.c-129 {fill: #af00ff}
.c-130 {fill: #af5f00}
.c-131 {fill: #af5f5f}
.c-132 {fill: #af5f87}
.c-133 {fill: #af5faf}
.c-134 {fill: #af5fd7}
.c-135 {fill: #af5fff}
.c-136 {fill: #af8700}
.c-137 {fill: #af875f}
.c-138 {fill: #af8787}
.c-139 {fill: #af87af}
.c-140 {fill: #af87d7}
.c-141 {fill: #af87ff}
.c-142 {fill: #afaf00}
.c-143 {fill: #afaf5f}
.c-144 {fill: #afaf87}
.c-145 {fill: #afafaf}
.c-146 {fill: #afafd7}
.c-147 {fill: #afafff}
.c-148 {fill: #afd700}
.c-149 {fill: #afd75f}
.c-150 {fill: #afd787}
.c-151 {fill: #afd7af}
.c-152 {fill: #afd7d7}
.c-153 {fill: #afd7ff}
.c-154 {fill: #afff00}
.c-155 {fill: #afff5f}
.c-156 {fill: #afff87}
.c-157 {fill: #afffaf}
.c-158 {fill: #afffd7}
.c-159 {fill: #afffff}
.c-160 {fill: #d70000}
.c-161 {fill: #d7005f}
.c-162 {fill: #d70087}
.c-163 {fill: #d700af}
.c-164 {fill: #d700d7}
.c-165 {fill: #d700ff}
.c-166 {fill: #d75f00}
.c-167 {fill: #d75f5f}
.c-168 {fill: #d75f87}
.c-169 {fill: #d75faf}
.c-170 {fill: #d75fd7}
.c-171 {fill: #d75fff}
.c-172 {fill: #d78700}
.c-173 {fill: #d7875f}
.c-174 {fill: #d78787}
.c-175 {fill: #d787af}
.c-176 {fill: #d787d7}
.c-177 {fill: #d787ff}
.c-178 {fill: #d7af00}
.c-179 {fill: #d7af5f}
.c-180 {fill: #d7af87}
.c-181 {fill: #d7afaf}
.c-182 {fill: #d7afd7}
.c-183 {fill: #d7afff}
.c-184 {fill: #d7d700}
.c-185 {fill: #d7d75f}
.c-186 {fill: #d7d787}
.c-187 {fill: #d7d7af}
.c-188 {fill: #d7d7d7}
.c-189 {fill: #d7d7ff}
.c-190 {fill: #d7ff00}
.c-191 {fill: #d7ff5f}
.c-192 {fill: #d7ff87}
.c-193 {fill: #d7ffaf}
.c-194 {fill: #d7ffd7}
.c-195 {fill: #d7ffff}
.c-196 {fill: #ff0000}
.c-197 {fill: #ff005f}
.c-198 {fill: #ff0087}
.c-199 {fill: #ff00af}
.c-200 {fill: #ff00d7}
.c-201 {fill: #ff00ff}
.c-202 {fill: #ff5f00}
.c-203 {fill: #ff5f5f}
.c-204 {fill: #ff5f87}
.c-205 {fill: #ff5faf}
.c-206 {fill: #ff5fd7}
.c-207 {fill: #ff5fff}
.c-208 {fill: #ff8700}
.c-209 {fill: #ff875f}
.c-210 {fill: #ff8787}
.c-211 {fill: #ff87af}
.c-212 {fill: #ff87d7}
.c-213 {fill: #ff87ff}
.c-214 {fill: #ffaf00}
.c-215 {fill: #ffaf5f}
.c-216 {fill: #ffaf87}
.c-217 {fill: #ffafaf}
.c-218 {fill: #ffafd7}
.c-219 {fill: #ffafff}
.c-220 {fill: #ffd700}
.c-221 {fill: #ffd75f}
.c-222 {fill: #ffd787}
.c-223 {fill: #ffd7af}
.c-224 {fill: #ffd7d7}
.c-225 {fill: #ffd7ff}
.c-226 {fill: #ffff00}
.c-227 {fill: #ffff5f}
.c-228 {fill: #ffff87}
.c-229 {fill: #ffffaf}
.c-230 {fill: #ffffd7}
.c-231 {fill: #ffffff}
.c-232 {fill: #080808}
.c-233 {fill: #121212}
.c-234 {fill: #1c1c1c}
.c-235 {fill: #262626}
.c-236 {fill: #303030}
.c-237 {fill: #3a3a3a}
.c-238 {fill: #444444}
.c-239 {fill: #4e4e4e}
.c-240 {fill: #585858}
.c-241 {fill: #626262}
.c-242 {fill: #6c6c6c}
.c-243 {fill: #767676}
.c-244 {fill: #808080}
.c-245 {fill: #8a8a8a}
.c-246 {fill: #949494}
.c-247 {fill: #9e9e9e}
.c-248 {fill: #a8a8a8}
.c-249 {fill: #b2b2b2}
.c-250 {fill: #bcbcbc}
.c-251 {fill: #c6c6c6}
.c-252 {fill: #d0d0d0}
.c-253 {fill: #dadada}
.c-254 {fill: #e4e4e4}
.c-255 {fill: #eeeeee}

.br { font-weight: bold }
.fa { fill-opacity: 0.5 }
.it { font-style: italic }
.un { text-decoration: underline }
</style>

<rect width="100%" height="100%" class="default-bg-fill" rx="4" ry="4" />

<svg x="0.543%" y="1.064%" class="default-text-fill">
<g style="shape-rendering: optimizeSpeed">
<rect x="0.000%" y="87.234%" width="0.543%" height="19.7" class="c-7" />
</g>

<text class="default-text-fill">
<tspan y="0.000%">
<tspan dy="1em" x="0.000%">(</tspan><tspan x="0.543%">b</tspan><tspan x="1.087%">a</tspan><tspan x="1.630%">s</tspan><tspan x="2.174%">e</tspan><tspan x="2.717%">)</tspan><tspan x="3.804%" class="br c-10">➜</tspan><tspan x="5.435%" class="br c-14">l</tspan><tspan x="5.978%" class="br c-14">a</tspan><tspan x="6.522%" class="br c-14">n</tspan><tspan x="7.065%" class="br c-14">g</tspan><tspan x="7.609%" class="br c-14">c</tspan><tspan x="8.152%" class="br c-14">h</tspan><tspan x="8.696%" class="br c-14">a</tspan><tspan x="9.239%" class="br c-14">i</tspan><tspan x="9.783%" class="br c-14">n</tspan><tspan x="10.326%" class="br c-14">_</tspan><tspan x="10.870%" class="br c-14">t</tspan><tspan x="11.413%" class="br c-14">o</tspan><tspan x="11.957%" class="br c-14">o</tspan><tspan x="12.500%" class="br c-14">l</tspan><tspan x="13.043%" class="br c-14">s</tspan><tspan x="14.130%" class="br c-12">g</tspan><tspan x="14.674%" class="br c-12">i</tspan><tspan x="15.217%" class="br c-12">t</tspan><tspan x="15.761%" class="br c-12">:</tspan><tspan x="16.304%" class="br c-12">(</tspan><tspan x="16.848%" class="br c-9">m</tspan><tspan x="17.391%" class="br c-9">a</tspan><tspan x="17.935%" class="br c-9">s</tspan><tspan x="18.478%" class="br c-9">t</tspan><tspan x="19.022%" class="br c-9">e</tspan><tspan x="19.565%" class="br c-9">r</tspan><tspan x="20.109%" class="br c-12">)</tspan><tspan x="21.196%" class="br c-11">✗</tspan><tspan x="22.283%">p</tspan><tspan x="22.826%">y</tspan><tspan x="23.370%">t</tspan><tspan x="23.913%">h</tspan><tspan x="24.457%">o</tspan><tspan x="25.000%">n</tspan><tspan x="26.087%">f</tspan><tspan x="26.630%">u</tspan><tspan x="27.174%">n</tspan><tspan x="27.717%">c</tspan><tspan x="28.261%">_</tspan><tspan x="28.804%">f</tspan><tspan x="29.348%">i</tspan><tspan x="29.891%">l</tspan><tspan x="30.435%">e</tspan><tspan x="30.978%">m</tspan><tspan x="31.522%">g</tspan><tspan x="32.065%">r</tspan><tspan x="32.609%">/</tspan><tspan x="33.152%">m</tspan><tspan x="33.696%">a</tspan><tspan x="34.239%">i</tspan><tspan x="34.783%">n</tspan><tspan x="35.326%">.</tspan><tspan x="35.870%">p</tspan><tspan x="36.413%">y</tspan>
</tspan>
<tspan y="2.128%">
<tspan dy="1em" x="0.000%">Q</tspan><tspan x="0.543%">u</tspan><tspan x="1.087%">e</tspan><tspan x="1.630%">s</tspan><tspan x="2.174%">t</tspan><tspan x="2.717%">i</tspan><tspan x="3.261%">o</tspan><tspan x="3.804%">n</tspan><tspan x="4.348%">:</tspan><tspan x="5.435%">:</tspan><tspan x="6.522%">l</tspan><tspan x="7.065%">i</tspan><tspan x="7.609%">s</tspan><tspan x="8.152%">t</tspan><tspan x="9.239%">f</tspan><tspan x="9.783%">o</tspan><tspan x="10.326%">l</tspan><tspan x="10.870%">d</tspan><tspan x="11.413%">e</tspan><tspan x="11.957%">r</tspan>
</tspan>
<tspan y="4.255%">
<tspan dy="1em" x="0.000%">A</tspan><tspan x="0.543%">n</tspan><tspan x="1.087%">s</tspan><tspan x="1.630%">w</tspan><tspan x="2.174%">e</tspan><tspan x="2.717%">r</tspan><tspan x="3.261%">:</tspan><tspan x="4.348%">T</tspan><tspan x="4.891%">h</tspan><tspan x="5.435%">e</tspan><tspan x="6.522%">f</tspan><tspan x="7.065%">i</tspan><tspan x="7.609%">l</tspan><tspan x="8.152%">e</tspan><tspan x="8.696%">s</tspan><tspan x="9.783%">a</tspan><tspan x="10.326%">n</tspan><tspan x="10.870%">d</tspan><tspan x="11.957%">d</tspan><tspan x="12.500%">i</tspan><tspan x="13.043%">r</tspan><tspan x="13.587%">e</tspan><tspan x="14.130%">c</tspan><tspan x="14.674%">t</tspan><tspan x="15.217%">o</tspan><tspan x="15.761%">r</tspan><tspan x="16.304%">i</tspan><tspan x="16.848%">e</tspan><tspan x="17.391%">s</tspan><tspan x="18.478%">i</tspan><tspan x="19.022%">n</tspan><tspan x="20.109%">t</tspan><tspan x="20.652%">h</tspan><tspan x="21.196%">e</tspan><tspan x="22.283%">c</tspan><tspan x="22.826%">u</tspan><tspan x="23.370%">r</tspan><tspan x="23.913%">r</tspan><tspan x="24.457%">e</tspan><tspan x="25.000%">n</tspan><tspan x="25.543%">t</tspan><tspan x="26.630%">f</tspan><tspan x="27.174%">o</tspan><tspan x="27.717%">l</tspan><tspan x="28.261%">d</tspan><tspan x="28.804%">e</tspan><tspan x="29.348%">r</tspan><tspan x="30.435%">a</tspan><tspan x="30.978%">r</tspan><tspan x="31.522%">e</tspan><tspan x="32.065%">:</tspan>
</tspan>
<tspan y="6.383%">

</tspan>
<tspan y="8.511%">
<tspan dy="1em" x="0.000%">-</tspan><tspan x="1.087%">t</tspan><tspan x="1.630%">r</tspan><tspan x="2.174%">a</tspan><tspan x="2.717%">v</tspan><tspan x="3.261%">e</tspan><tspan x="3.804%">l</tspan><tspan x="4.348%">_</tspan><tspan x="4.891%">t</tspan><tspan x="5.435%">o</tspan><tspan x="5.978%">o</tspan><tspan x="6.522%">l</tspan>
</tspan>
<tspan y="10.638%">
<tspan dy="1em" x="0.000%">-</tspan><tspan x="1.087%">O</tspan><tspan x="1.630%">p</tspan><tspan x="2.174%">e</tspan><tspan x="2.717%">n</tspan><tspan x="3.261%">A</tspan><tspan x="3.804%">I</tspan><tspan x="4.348%">_</tspan><tspan x="4.891%">F</tspan><tspan x="5.435%">u</tspan><tspan x="5.978%">n</tspan><tspan x="6.522%">c</tspan><tspan x="7.065%">t</tspan><tspan x="7.609%">i</tspan><tspan x="8.152%">o</tspan><tspan x="8.696%">n</tspan><tspan x="9.239%">s</tspan><tspan x="9.783%">.</tspan><tspan x="10.326%">p</tspan><tspan x="10.870%">y</tspan>
</tspan>
<tspan y="12.766%">
<tspan dy="1em" x="0.000%">-</tspan><tspan x="1.087%">s</tspan><tspan x="1.630%">t</tspan><tspan x="2.174%">o</tspan><tspan x="2.717%">c</tspan><tspan x="3.261%">k</tspan><tspan x="3.804%">_</tspan><tspan x="4.348%">t</tspan><tspan x="4.891%">o</tspan><tspan x="5.435%">o</tspan><tspan x="5.978%">l</tspan>
</tspan>
<tspan y="14.894%">
<tspan dy="1em" x="0.000%">-</tspan><tspan x="1.087%">L</tspan><tspan x="1.630%">I</tspan><tspan x="2.174%">C</tspan><tspan x="2.717%">E</tspan><tspan x="3.261%">N</tspan><tspan x="3.804%">S</tspan><tspan x="4.348%">E</tspan>
</tspan>
<tspan y="17.021%">
<tspan dy="1em" x="0.000%">-</tspan><tspan x="1.087%">m</tspan><tspan x="1.630%">e</tspan><tspan x="2.174%">m</tspan><tspan x="2.717%">o</tspan><tspan x="3.261%">r</tspan><tspan x="3.804%">y</tspan><tspan x="4.348%">.</tspan><tspan x="4.891%">p</tspan><tspan x="5.435%">y</tspan>
</tspan>
<tspan y="19.149%">
<tspan dy="1em" x="0.000%">-</tspan><tspan x="1.087%">p</tspan><tspan x="1.630%">y</tspan><tspan x="2.174%">p</tspan><tspan x="2.717%">r</tspan><tspan x="3.261%">o</tspan><tspan x="3.804%">j</tspan><tspan x="4.348%">e</tspan><tspan x="4.891%">c</tspan><tspan x="5.435%">t</tspan><tspan x="5.978%">.</tspan><tspan x="6.522%">t</tspan><tspan x="7.065%">o</tspan><tspan x="7.609%">m</tspan><tspan x="8.152%">l</tspan>
</tspan>
<tspan y="21.277%">
<tspan dy="1em" x="0.000%">-</tspan><tspan x="1.087%">p</tspan><tspan x="1.630%">d</tspan><tspan x="2.174%">f</tspan><tspan x="2.717%">.</tspan><tspan x="3.261%">p</tspan><tspan x="3.804%">y</tspan>
</tspan>
<tspan y="23.404%">
<tspan dy="1em" x="0.000%">-</tspan><tspan x="1.087%">_</tspan><tspan x="1.630%">_</tspan><tspan x="2.174%">p</tspan><tspan x="2.717%">y</tspan><tspan x="3.261%">c</tspan><tspan x="3.804%">a</tspan><tspan x="4.348%">c</tspan><tspan x="4.891%">h</tspan><tspan x="5.435%">e</tspan><tspan x="5.978%">_</tspan><tspan x="6.522%">_</tspan>
</tspan>
<tspan y="25.532%">
<tspan dy="1em" x="0.000%">-</tspan><tspan x="1.087%">R</tspan><tspan x="1.630%">E</tspan><tspan x="2.174%">A</tspan><tspan x="2.717%">D</tspan><tspan x="3.261%">M</tspan><tspan x="3.804%">E</tspan><tspan x="4.348%">.</tspan><tspan x="4.891%">m</tspan><tspan x="5.435%">d</tspan>
</tspan>
<tspan y="27.660%">
<tspan dy="1em" x="0.000%">-</tspan><tspan x="1.087%">.</tspan><tspan x="1.630%">g</tspan><tspan x="2.174%">i</tspan><tspan x="2.717%">t</tspan><tspan x="3.261%">i</tspan><tspan x="3.804%">g</tspan><tspan x="4.348%">n</tspan><tspan x="4.891%">o</tspan><tspan x="5.435%">r</tspan><tspan x="5.978%">e</tspan>
</tspan>
<tspan y="29.787%">
<tspan dy="1em" x="0.000%">-</tspan><tspan x="1.087%">p</tspan><tspan x="1.630%">d</tspan><tspan x="2.174%">f</tspan><tspan x="2.717%">_</tspan><tspan x="3.261%">m</tspan><tspan x="3.804%">e</tspan><tspan x="4.348%">m</tspan><tspan x="4.891%">o</tspan><tspan x="5.435%">r</tspan><tspan x="5.978%">y</tspan><tspan x="6.522%">.</tspan><tspan x="7.065%">p</tspan><tspan x="7.609%">y</tspan>
</tspan>
<tspan y="31.915%">
<tspan dy="1em" x="0.000%">-</tspan><tspan x="1.087%">1</tspan><tspan x="1.630%">.</tspan><tspan x="2.174%">t</tspan><tspan x="2.717%">x</tspan><tspan x="3.261%">t</tspan>
</tspan>
<tspan y="34.043%">
<tspan dy="1em" x="0.000%">-</tspan><tspan x="1.087%">s</tspan><tspan x="1.630%">t</tspan><tspan x="2.174%">o</tspan><tspan x="2.717%">c</tspan><tspan x="3.261%">k</tspan><tspan x="3.804%">_</tspan><tspan x="4.348%">t</tspan><tspan x="4.891%">o</tspan><tspan x="5.435%">o</tspan><tspan x="5.978%">l</tspan><tspan x="6.522%">.</tspan><tspan x="7.065%">p</tspan><tspan x="7.609%">y</tspan>
</tspan>
<tspan y="36.170%">
<tspan dy="1em" x="0.000%">-</tspan><tspan x="1.087%">p</tspan><tspan x="1.630%">o</tspan><tspan x="2.174%">e</tspan><tspan x="2.717%">t</tspan><tspan x="3.261%">r</tspan><tspan x="3.804%">y</tspan><tspan x="4.348%">.</tspan><tspan x="4.891%">l</tspan><tspan x="5.435%">o</tspan><tspan x="5.978%">c</tspan><tspan x="6.522%">k</tspan>
</tspan>
<tspan y="38.298%">
<tspan dy="1em" x="0.000%">-</tspan><tspan x="1.087%">.</tspan><tspan x="1.630%">g</tspan><tspan x="2.174%">i</tspan><tspan x="2.717%">t</tspan>
</tspan>
<tspan y="40.426%">
<tspan dy="1em" x="0.000%">-</tspan><tspan x="1.087%">.</tspan><tspan x="1.630%">v</tspan><tspan x="2.174%">s</tspan><tspan x="2.717%">c</tspan><tspan x="3.261%">o</tspan><tspan x="3.804%">d</tspan><tspan x="4.348%">e</tspan>
</tspan>
<tspan y="42.553%">
<tspan dy="1em" x="0.000%">-</tspan><tspan x="1.087%">f</tspan><tspan x="1.630%">u</tspan><tspan x="2.174%">n</tspan><tspan x="2.717%">c</tspan><tspan x="3.261%">_</tspan><tspan x="3.804%">f</tspan><tspan x="4.348%">i</tspan><tspan x="4.891%">l</tspan><tspan x="5.435%">e</tspan><tspan x="5.978%">m</tspan><tspan x="6.522%">g</tspan><tspan x="7.065%">r</tspan>
</tspan>
<tspan y="44.681%">
<tspan dy="1em" x="0.000%">Q</tspan><tspan x="0.543%">u</tspan><tspan x="1.087%">e</tspan><tspan x="1.630%">s</tspan><tspan x="2.174%">t</tspan><tspan x="2.717%">i</tspan><tspan x="3.261%">o</tspan><tspan x="3.804%">n</tspan><tspan x="4.348%">:</tspan><tspan x="5.435%">:</tspan><tspan x="6.522%">列</tspan><tspan x="7.065%">出</tspan><tspan x="7.609%">檔</tspan><tspan x="8.152%">案</tspan>
</tspan>
<tspan y="46.809%">
<tspan dy="1em" x="0.000%">A</tspan><tspan x="0.543%">n</tspan><tspan x="1.087%">s</tspan><tspan x="1.630%">w</tspan><tspan x="2.174%">e</tspan><tspan x="2.717%">r</tspan><tspan x="3.261%">:</tspan><tspan x="4.348%">以</tspan><tspan x="4.891%">下</tspan><tspan x="5.435%">是</tspan><tspan x="5.978%">目</tspan><tspan x="6.522%">前</tspan><tspan x="7.065%">目</tspan><tspan x="7.609%">錄</tspan><tspan x="8.152%">中</tspan><tspan x="8.696%">的</tspan><tspan x="9.239%">檔</tspan><tspan x="9.783%">案</tspan><tspan x="10.326%">和</tspan><tspan x="10.870%">資</tspan><tspan x="11.413%">料</tspan><tspan x="11.957%">夾</tspan><tspan x="12.500%">：</tspan>
</tspan>
<tspan y="48.936%">
<tspan dy="1em" x="0.000%">-</tspan><tspan x="1.087%">t</tspan><tspan x="1.630%">r</tspan><tspan x="2.174%">a</tspan><tspan x="2.717%">v</tspan><tspan x="3.261%">e</tspan><tspan x="3.804%">l</tspan><tspan x="4.348%">_</tspan><tspan x="4.891%">t</tspan><tspan x="5.435%">o</tspan><tspan x="5.978%">o</tspan><tspan x="6.522%">l</tspan>
</tspan>
<tspan y="51.064%">
<tspan dy="1em" x="0.000%">-</tspan><tspan x="1.087%">O</tspan><tspan x="1.630%">p</tspan><tspan x="2.174%">e</tspan><tspan x="2.717%">n</tspan><tspan x="3.261%">A</tspan><tspan x="3.804%">I</tspan><tspan x="4.348%">_</tspan><tspan x="4.891%">F</tspan><tspan x="5.435%">u</tspan><tspan x="5.978%">n</tspan><tspan x="6.522%">c</tspan><tspan x="7.065%">t</tspan><tspan x="7.609%">i</tspan><tspan x="8.152%">o</tspan><tspan x="8.696%">n</tspan><tspan x="9.239%">s</tspan><tspan x="9.783%">.</tspan><tspan x="10.326%">p</tspan><tspan x="10.870%">y</tspan>
</tspan>
<tspan y="53.191%">
<tspan dy="1em" x="0.000%">-</tspan><tspan x="1.087%">s</tspan><tspan x="1.630%">t</tspan><tspan x="2.174%">o</tspan><tspan x="2.717%">c</tspan><tspan x="3.261%">k</tspan><tspan x="3.804%">_</tspan><tspan x="4.348%">t</tspan><tspan x="4.891%">o</tspan><tspan x="5.435%">o</tspan><tspan x="5.978%">l</tspan>
</tspan>
<tspan y="55.319%">
<tspan dy="1em" x="0.000%">-</tspan><tspan x="1.087%">L</tspan><tspan x="1.630%">I</tspan><tspan x="2.174%">C</tspan><tspan x="2.717%">E</tspan><tspan x="3.261%">N</tspan><tspan x="3.804%">S</tspan><tspan x="4.348%">E</tspan>
</tspan>
<tspan y="57.447%">
<tspan dy="1em" x="0.000%">-</tspan><tspan x="1.087%">m</tspan><tspan x="1.630%">e</tspan><tspan x="2.174%">m</tspan><tspan x="2.717%">o</tspan><tspan x="3.261%">r</tspan><tspan x="3.804%">y</tspan><tspan x="4.348%">.</tspan><tspan x="4.891%">p</tspan><tspan x="5.435%">y</tspan>
</tspan>
<tspan y="59.574%">
<tspan dy="1em" x="0.000%">-</tspan><tspan x="1.087%">p</tspan><tspan x="1.630%">y</tspan><tspan x="2.174%">p</tspan><tspan x="2.717%">r</tspan><tspan x="3.261%">o</tspan><tspan x="3.804%">j</tspan><tspan x="4.348%">e</tspan><tspan x="4.891%">c</tspan><tspan x="5.435%">t</tspan><tspan x="5.978%">.</tspan><tspan x="6.522%">t</tspan><tspan x="7.065%">o</tspan><tspan x="7.609%">m</tspan><tspan x="8.152%">l</tspan>
</tspan>
<tspan y="61.702%">
<tspan dy="1em" x="0.000%">-</tspan><tspan x="1.087%">p</tspan><tspan x="1.630%">d</tspan><tspan x="2.174%">f</tspan><tspan x="2.717%">.</tspan><tspan x="3.261%">p</tspan><tspan x="3.804%">y</tspan>
</tspan>
<tspan y="63.830%">
<tspan dy="1em" x="0.000%">-</tspan><tspan x="1.087%">\</tspan><tspan x="1.630%">_</tspan><tspan x="2.174%">\</tspan><tspan x="2.717%">_</tspan><tspan x="3.261%">p</tspan><tspan x="3.804%">y</tspan><tspan x="4.348%">c</tspan><tspan x="4.891%">a</tspan><tspan x="5.435%">c</tspan><tspan x="5.978%">h</tspan><tspan x="6.522%">e</tspan><tspan x="7.065%">\</tspan><tspan x="7.609%">_</tspan><tspan x="8.152%">\</tspan><tspan x="8.696%">_</tspan>
</tspan>
<tspan y="65.957%">
<tspan dy="1em" x="0.000%">-</tspan><tspan x="1.087%">R</tspan><tspan x="1.630%">E</tspan><tspan x="2.174%">A</tspan><tspan x="2.717%">D</tspan><tspan x="3.261%">M</tspan><tspan x="3.804%">E</tspan><tspan x="4.348%">.</tspan><tspan x="4.891%">m</tspan><tspan x="5.435%">d</tspan>
</tspan>
<tspan y="68.085%">
<tspan dy="1em" x="0.000%">-</tspan><tspan x="1.087%">.</tspan><tspan x="1.630%">g</tspan><tspan x="2.174%">i</tspan><tspan x="2.717%">t</tspan><tspan x="3.261%">i</tspan><tspan x="3.804%">g</tspan><tspan x="4.348%">n</tspan><tspan x="4.891%">o</tspan><tspan x="5.435%">r</tspan><tspan x="5.978%">e</tspan>
</tspan>
<tspan y="70.213%">
<tspan dy="1em" x="0.000%">-</tspan><tspan x="1.087%">p</tspan><tspan x="1.630%">d</tspan><tspan x="2.174%">f</tspan><tspan x="2.717%">_</tspan><tspan x="3.261%">m</tspan><tspan x="3.804%">e</tspan><tspan x="4.348%">m</tspan><tspan x="4.891%">o</tspan><tspan x="5.435%">r</tspan><tspan x="5.978%">y</tspan><tspan x="6.522%">.</tspan><tspan x="7.065%">p</tspan><tspan x="7.609%">y</tspan>
</tspan>
<tspan y="72.340%">
<tspan dy="1em" x="0.000%">-</tspan><tspan x="1.087%">1</tspan><tspan x="1.630%">.</tspan><tspan x="2.174%">t</tspan><tspan x="2.717%">x</tspan><tspan x="3.261%">t</tspan>
</tspan>
<tspan y="74.468%">
<tspan dy="1em" x="0.000%">-</tspan><tspan x="1.087%">s</tspan><tspan x="1.630%">t</tspan><tspan x="2.174%">o</tspan><tspan x="2.717%">c</tspan><tspan x="3.261%">k</tspan><tspan x="3.804%">_</tspan><tspan x="4.348%">t</tspan><tspan x="4.891%">o</tspan><tspan x="5.435%">o</tspan><tspan x="5.978%">l</tspan><tspan x="6.522%">.</tspan><tspan x="7.065%">p</tspan><tspan x="7.609%">y</tspan>
</tspan>
<tspan y="76.596%">
<tspan dy="1em" x="0.000%">-</tspan><tspan x="1.087%">p</tspan><tspan x="1.630%">o</tspan><tspan x="2.174%">e</tspan><tspan x="2.717%">t</tspan><tspan x="3.261%">r</tspan><tspan x="3.804%">y</tspan><tspan x="4.348%">.</tspan><tspan x="4.891%">l</tspan><tspan x="5.435%">o</tspan><tspan x="5.978%">c</tspan><tspan x="6.522%">k</tspan>
</tspan>
<tspan y="78.723%">
<tspan dy="1em" x="0.000%">-</tspan><tspan x="1.087%">.</tspan><tspan x="1.630%">g</tspan><tspan x="2.174%">i</tspan><tspan x="2.717%">t</tspan>
</tspan>
<tspan y="80.851%">
<tspan dy="1em" x="0.000%">-</tspan><tspan x="1.087%">.</tspan><tspan x="1.630%">v</tspan><tspan x="2.174%">s</tspan><tspan x="2.717%">c</tspan><tspan x="3.261%">o</tspan><tspan x="3.804%">d</tspan><tspan x="4.348%">e</tspan>
</tspan>
<tspan y="82.979%">
<tspan dy="1em" x="0.000%">-</tspan><tspan x="1.087%">f</tspan><tspan x="1.630%">u</tspan><tspan x="2.174%">n</tspan><tspan x="2.717%">c</tspan><tspan x="3.261%">_</tspan><tspan x="3.804%">f</tspan><tspan x="4.348%">i</tspan><tspan x="4.891%">l</tspan><tspan x="5.435%">e</tspan><tspan x="5.978%">m</tspan><tspan x="6.522%">g</tspan><tspan x="7.065%">r</tspan>
</tspan>
<tspan y="85.106%">
<tspan dy="1em" x="0.000%">Q</tspan><tspan x="0.543%">u</tspan><tspan x="1.087%">e</tspan><tspan x="1.630%">s</tspan><tspan x="2.174%">t</tspan><tspan x="2.717%">i</tspan><tspan x="3.261%">o</tspan><tspan x="3.804%">n</tspan><tspan x="4.348%">:</tspan><tspan x="5.435%">:</tspan><tspan x="6.522%">讀</tspan><tspan x="7.065%">取</tspan><tspan x="8.152%">p</tspan><tspan x="8.696%">d</tspan><tspan x="9.239%">f</tspan><tspan x="9.783%">.</tspan><tspan x="10.326%">p</tspan><tspan x="10.870%">y</tspan>
</tspan>
<tspan y="87.234%">

</tspan>
<tspan y="89.362%">

</tspan>
<tspan y="91.489%">

</tspan>
<tspan y="93.617%">

</tspan>
<tspan y="95.745%">

</tspan>

</text>

<g transform="translate(-50 -50)">
<svg x="50%" y="50%" width="100" height="100">
<svg version="1.1" xmlns="http://www.w3.org/2000/svg" viewBox="0 0 866.0254037844387 866.0254037844387">
  <defs>
    <mask id="small-triangle-mask">
      <rect width="100%" height="100%" fill="white"/>
      <polygon points="508.01270189221935 433.01270189221935, 208.0127018922194 259.8076211353316, 208.01270189221927 606.217782649107" fill="black"></polygon>
    </mask>
  </defs>
  <polygon points="808.0127018922194 433.01270189221935, 58.01270189221947 -1.1368683772161603e-13, 58.01270189221913 866.0254037844386" mask="url(#small-triangle-mask)" fill="white"></polygon>
  <polyline points="481.2177826491071 333.0127018922194, 134.80762113533166 533.0127018922194" stroke="white" stroke-width="90"></polyline>
</svg>

</svg>
</g>
</svg>
</svg>
